<?xml version="1.0" encoding="UTF-8" standalone="no"?>
<!-- Created with Inkscape (http://www.inkscape.org/) -->

<svg
   xmlns:dc="http://purl.org/dc/elements/1.1/"
   xmlns:cc="http://creativecommons.org/ns#"
   xmlns:rdf="http://www.w3.org/1999/02/22-rdf-syntax-ns#"
   xmlns:svg="http://www.w3.org/2000/svg"
   xmlns="http://www.w3.org/2000/svg"
   xmlns:sodipodi="http://sodipodi.sourceforge.net/DTD/sodipodi-0.dtd"
   xmlns:inkscape="http://www.inkscape.org/namespaces/inkscape"
   id="svg2"
   version="1.1"
   inkscape:version="0.91 r13725"
   xml:space="preserve"
   width="362.5856"
   height="91.699188"
   viewBox="0 0 362.5856 91.699188"
   sodipodi:docname="HMS_Brand_Standards_3.14.13a.pdf"><metadata
     id="metadata8"><rdf:RDF><cc:Work
         rdf:about=""><dc:format>image/svg+xml</dc:format><dc:type
           rdf:resource="http://purl.org/dc/dcmitype/StillImage" /><dc:title></dc:title></cc:Work></rdf:RDF></metadata><defs
     id="defs6"><clipPath
       clipPathUnits="userSpaceOnUse"
       id="clipPath20"><path
         d="M 0,0 291,0 291,74 0,74 0,0 Z"
         id="path22"
         inkscape:connector-curvature="0" /></clipPath><clipPath
       clipPathUnits="userSpaceOnUse"
       id="clipPath114"><path
         d="M 1,57 60,57 60,72 1,72 1,57 Z"
         id="path116"
         inkscape:connector-curvature="0" /></clipPath></defs><sodipodi:namedview
     pagecolor="#ffffff"
     bordercolor="#666666"
     borderopacity="1"
     objecttolerance="10"
     gridtolerance="10"
     guidetolerance="10"
     inkscape:pageopacity="0"
     inkscape:pageshadow="2"
     inkscape:window-width="991"
     inkscape:window-height="765"
     id="namedview4"
     showgrid="false"
     inkscape:zoom="1.2383283"
     inkscape:cx="181.2928"
     inkscape:cy="110.45282"
     inkscape:window-x="65"
     inkscape:window-y="24"
     inkscape:window-maximized="0"
     inkscape:current-layer="g10" /><g
     id="g10"
     inkscape:groupmode="layer"
     inkscape:label="HMS_Brand_Standards_3.14.13a"
     transform="matrix(1.25,0,0,-1.25,0,91.69919)"><g
       id="g12"><g
         id="g14"
         transform="translate(0,-0.640648)"><g
           id="g16"><g
             id="g18"
             clip-path="url(#clipPath20)"><g
               id="g24"><path
                 d="m 171.25,61.465 c -0.617,1.347 -1.551,2.336 -3.141,2.683 l 0,0.782 c 0.985,0 4.27,-0.118 5.024,-0.118 0.699,0 3.668,0.118 4.683,0.118 l 0,-0.766 c -0.902,-0.172 -1.933,-0.672 -1.933,-1.594 0,-0.66 0.402,-1.558 1.16,-3.254 l 7.211,-16.375 6.801,16.403 c 0.539,1.324 0.925,2.344 0.925,3.125 0,0.875 -0.8,1.465 -1.925,1.695 l 0,0.766 c 0.898,0 3.09,-0.118 3.785,-0.118 0.633,0 3.234,0.118 4.226,0.118 l 0,-0.782 c -1.699,-0.453 -2.734,-1.394 -3.679,-3.609 l -10.02,-23.633 -2.109,0 -11.008,24.559 z"
                 style="fill:#231f20;fill-opacity:1;fill-rule:nonzero;stroke:none"
                 id="path26"
                 inkscape:connector-curvature="0" /><path
                 d="m 73.969,37.812 c 1.308,0.293 2.23,0.887 2.23,2.372 l 0,21.66 c 0,1.426 -0.863,2.023 -2.23,2.379 l 0,0.769 c 0.683,0 3.648,-0.117 4.359,-0.117 0.832,0 3.973,0.117 4.66,0.117 l 0,-0.769 C 81.68,63.922 80.703,63.332 80.703,61.844 l 0,-9.051 16.145,0 0,9.051 c 0,1.488 -0.856,2.078 -2.219,2.379 l 0,0.769 c 0.68,0 3.762,-0.117 4.594,-0.117 0.711,0 3.738,0.117 4.418,0.117 l 0,-0.769 c -1.309,-0.301 -2.282,-0.891 -2.282,-2.379 l 0,-21.66 c 0,-1.426 0.911,-2.016 2.282,-2.372 l 0,-0.718 c -0.68,0 -3.707,0.062 -4.418,0.062 -0.832,0 -3.914,-0.062 -4.594,-0.062 l 0,0.718 c 1.301,0.293 2.219,0.887 2.219,2.372 l 0,10.238 -16.145,0 0,-10.238 c 0,-1.485 0.918,-2.016 2.285,-2.372 l 0,-0.718 c -0.687,0 -3.828,0.062 -4.66,0.062 -0.711,0 -3.676,-0.062 -4.359,-0.062 l 0,0.718 z m 34.105,0 c 1.758,0.411 2.727,1.555 3.375,3.083 l 8.922,21.48 c 0.379,0.891 0.824,2.715 0.824,2.715 l 2.496,0 c 0,0 0.446,-1.828 0.821,-2.719 l 9.437,-21.535 c 0.668,-1.481 1.395,-2.551 3.274,-3.024 l -0.004,-0.718 c -1.024,0 -4.199,0.062 -4.922,0.062 -0.719,0 -3.75,-0.062 -4.774,-0.062 l 0.004,0.718 c 1.379,0.336 1.809,1.04 1.809,1.711 0,0.575 -0.234,1.223 -0.52,1.895 l -2,4.562 -10.453,0.004 -1.832,-4.589 c -0.211,-0.528 -0.457,-1.274 -0.457,-1.774 0,-0.769 0.406,-1.398 1.965,-1.809 l 0,-0.718 c -0.926,0 -3.355,0.062 -3.934,0.062 l -4.035,-0.062 0.004,0.718 z m 17.77,10.426 -4.442,10.344 -4.132,-10.344 8.574,0 z m -17.77,-10.426 c 1.758,0.411 2.727,1.555 3.375,3.083 l 8.922,21.48 c 0.379,0.891 0.824,2.715 0.824,2.715 l 2.496,0 c 0,0 0.446,-1.828 0.821,-2.719 l 9.437,-21.535 c 0.668,-1.481 1.395,-2.551 3.274,-3.024 l -0.004,-0.718 c -1.024,0 -4.199,0.062 -4.922,0.062 -0.719,0 -3.75,-0.062 -4.774,-0.062 l 0.004,0.718 c 1.379,0.336 1.809,1.04 1.809,1.711 0,0.575 -0.234,1.223 -0.52,1.895 l -2,4.562 -10.453,0.004 -1.832,-4.589 c -0.211,-0.528 -0.457,-1.274 -0.457,-1.774 0,-0.769 0.406,-1.398 1.965,-1.809 l 0,-0.718 c -0.926,0 -3.355,0.062 -3.934,0.062 l -4.035,-0.062 0.004,0.718 z m 17.77,10.426 -4.442,10.344 -4.132,-10.344 8.574,0 z m 70.687,-10.426 c 1.758,0.411 2.727,1.555 3.364,3.083 l 8.937,21.48 c 0.375,0.891 0.816,2.715 0.816,2.715 l 2.5,0 c 0,0 0.45,-1.828 0.821,-2.719 l 9.429,-21.535 c 0.676,-1.481 1.407,-2.551 3.282,-3.024 l -0.008,-0.718 c -1.02,0 -4.195,0.062 -4.918,0.062 -0.723,0 -3.75,-0.062 -4.774,-0.062 l 0.012,0.718 c 1.371,0.336 1.801,1.04 1.801,1.711 0,0.575 -0.238,1.223 -0.523,1.895 l -1.997,4.562 -10.461,0.004 -1.824,-4.589 c -0.211,-0.528 -0.453,-1.274 -0.453,-1.774 0,-0.769 0.403,-1.398 1.961,-1.809 l -0.004,-0.718 c -0.922,0 -3.281,0.062 -3.851,0.062 l -4.118,-0.062 0.008,0.718 z m 17.766,10.426 -4.434,10.344 -4.14,-10.344 8.574,0 z m 46.734,-10.426 c 1.676,0.293 2.594,0.958 2.594,2.489 l 0,21.543 c 0,1.488 -0.91,2.078 -2.523,2.379 l 0,0.769 c 0.929,0 4.007,-0.117 4.836,-0.117 1.367,0 5.226,0.293 8.175,0.293 9.93,0 15.957,-5.535 15.957,-13.973 0,-8.199 -6.269,-14.273 -16.511,-14.273 -2.95,0 -6.532,0.234 -7.899,0.234 -0.832,0 -3.699,-0.117 -4.629,-0.117 l 0,0.773 z m 7.102,1.418 c 1.012,-0.171 2.883,-0.289 4.359,-0.289 8.336,0 12.684,5.012 12.684,12.02 0,7.258 -4.582,12.371 -12.379,12.371 -1.594,0 -3.59,-0.121 -4.664,-0.297 l 0,-23.805 z"
                 style="fill:#231f20;fill-opacity:1;fill-rule:nonzero;stroke:none"
                 id="path28"
                 inkscape:connector-curvature="0" /><path
                 d="m 148.398,40.383 c 0,-1.438 0.911,-2.215 2.586,-2.571 l 0,-0.777 c -0.929,0 -3.968,0.121 -4.839,0.121 -0.747,0 -3.723,-0.121 -4.657,-0.121 l 0,0.777 c 1.559,0.293 2.473,1.075 2.473,2.571 l 0,21.394 c 0,1.313 -0.711,2.149 -2.469,2.446 l 0,0.769 c 0.934,0 3.879,-0.117 4.711,-0.117 1.363,0 5.235,0.223 6.758,0.223 6.68,0 10.394,-2.758 10.394,-7.481 0,-3.722 -2.773,-6.23 -7.027,-7.269 0,0 0.961,-0.563 1.93,-1.696 1.183,-1.382 4.535,-6.043 5.851,-7.632 1.313,-1.594 3.008,-3.418 4.801,-3.5 l 0,-0.586 c -0.859,-0.192 -2.242,-0.348 -3.297,-0.348 -2.281,0 -4.09,0.797 -5.843,2.926 -1.524,1.847 -4.27,5.781 -5.793,7.718 -0.973,1.235 -2.141,2.208 -4.289,2.555 -0.422,0.074 -0.821,0.133 -1.29,0.184 l 0,-9.586 z m 0,11.359 c 0.887,-0.113 2.192,-0.176 3.485,-0.176 5.226,0 6.867,3.008 6.867,5.661 0,3.777 -2.512,6.105 -7.09,6.105 -0.941,0 -2.312,-0.121 -3.262,-0.301 l 0,-11.289 z"
                 style="fill:#231f20;fill-opacity:1;fill-rule:nonzero;stroke:none"
                 id="path30"
                 inkscape:connector-curvature="0" /><path
                 d="m 236.414,40.383 c 0,-1.438 0.914,-2.215 2.59,-2.571 l 0,-0.777 c -0.934,0 -3.969,0.121 -4.84,0.121 -0.746,0 -3.726,-0.121 -4.656,-0.121 l 0,0.777 c 1.554,0.293 2.469,1.075 2.469,2.571 l 0,21.394 c 0,1.313 -0.715,2.149 -2.469,2.446 l 0,0.769 c 0.933,0 3.875,-0.117 4.707,-0.117 1.363,0 5.242,0.223 6.765,0.223 6.676,0 10.391,-2.758 10.391,-7.481 0,-3.722 -2.773,-6.23 -7.023,-7.269 0,0 0.961,-0.563 1.929,-1.696 1.184,-1.382 4.438,-6.043 5.746,-7.632 1.321,-1.594 3.008,-3.418 4.805,-3.5 l 0,-0.586 c -0.859,-0.192 -2.242,-0.348 -3.301,-0.348 -2.277,0 -4.089,0.797 -5.843,2.926 -1.516,1.847 -4.168,5.781 -5.688,7.718 -0.973,1.235 -2.144,2.208 -4.289,2.555 -0.43,0.074 -0.816,0.133 -1.293,0.184 l 0,-9.586 z m 0,11.359 c 0.891,-0.113 2.199,-0.176 3.492,-0.176 5.219,0 6.86,3.008 6.86,5.661 0,3.777 -2.508,6.105 -7.09,6.105 -0.934,0 -2.313,-0.121 -3.262,-0.301 l 0,-11.289 z"
                 style="fill:#231f20;fill-opacity:1;fill-rule:nonzero;stroke:none"
                 id="path32"
                 inkscape:connector-curvature="0" /><path
                 d="m 192.551,13.027 0.398,0 c 0.211,-0.808 0.676,-1.543 1.328,-1.972 0.672,-0.477 1.731,-0.707 2.586,-0.707 1.891,0 3.09,0.937 3.09,2.422 0,1.535 -1.543,2.234 -3.371,3.132 -1.363,0.672 -4.144,1.696 -4.144,4.469 0,2.457 1.898,3.996 4.847,3.996 1.949,0 2.895,-0.484 4.215,-0.426 l -0.031,-2.937 -0.399,0 c -0.523,1.734 -2.097,2.336 -3.816,2.336 -1.926,0 -2.734,-1.102 -2.734,-2.258 0,-1.648 1.777,-2.547 3.425,-3.273 2.004,-0.879 4.176,-1.907 4.176,-4.407 0,-2.371 -1.851,-4.058 -5.238,-4.058 -2.024,0 -3.231,0.547 -4.289,0.676 l -0.043,3.007 z"
                 style="fill:#c4122e;fill-opacity:1;fill-rule:nonzero;stroke:none"
                 id="path34"
                 inkscape:connector-curvature="0" /><path
                 d="m 222.961,10.059 c 0.676,0.152 1.148,0.461 1.148,1.226 l 0,11.184 c 0,0.734 -0.441,1.039 -1.148,1.222 l 0,0.399 c 0.351,0 1.91,-0.063 2.281,-0.063 0.43,0 2.055,0.063 2.406,0.063 l 0,-0.399 c -0.675,-0.152 -1.179,-0.457 -1.179,-1.222 l 0,-4.676 8.273,0 0,4.676 c 0,0.765 -0.441,1.07 -1.144,1.222 l 0,0.399 c 0.351,0 1.945,-0.063 2.371,-0.063 0.371,0 1.961,0.063 2.308,0.063 l 0,-0.399 c -0.672,-0.152 -1.175,-0.457 -1.175,-1.222 l 0,-11.184 c 0,-0.734 0.472,-1.043 1.175,-1.226 l 0,-0.368 c -0.347,0 -1.937,0.032 -2.308,0.032 -0.426,0 -2.02,-0.032 -2.371,-0.032 l 0,0.368 c 0.672,0.152 1.144,0.461 1.144,1.226 l 0,5.281 -8.273,0 0,-5.281 c 0,-0.765 0.472,-1.043 1.179,-1.226 l 0,-0.368 c -0.351,0 -1.976,0.032 -2.406,0.032 -0.371,0 -1.93,-0.032 -2.281,-0.032 l 0,0.368 z"
                 style="fill:#c4122e;fill-opacity:1;fill-rule:nonzero;stroke:none"
                 id="path36"
                 inkscape:connector-curvature="0" /><path
                 d="m 218.891,13.273 -0.157,-3.214 c -1.058,0.113 -2.57,-0.727 -5.105,-0.727 -5.301,0 -7.754,3.27 -7.754,7.43 0,4.41 3.105,7.586 7.625,7.586 2.23,0 3.609,-0.801 5.008,-0.727 l 0.129,-3.203 -0.41,0 c -0.813,1.887 -2.731,2.863 -4.7,2.863 -3.328,0 -5.129,-2.937 -5.129,-6.441 0,-2.871 1.45,-6.438 5.461,-6.438 2.266,0 3.903,0.809 4.621,2.871 l 0.411,0 z"
                 style="fill:#c4122e;fill-opacity:1;fill-rule:nonzero;stroke:none"
                 id="path38"
                 inkscape:connector-curvature="0" /><path
                 d="m 241.852,16.793 c 0,4.156 2.882,7.555 7.425,7.555 4.516,0 7.403,-3.375 7.403,-7.555 0,-4.152 -2.887,-7.461 -7.403,-7.461 -4.543,0 -7.425,3.285 -7.425,7.461 m 12.293,0 c 0,3.344 -1.485,6.5 -4.868,6.5 -3.382,0 -4.894,-3.156 -4.894,-6.5 0,-3.344 1.512,-6.406 4.894,-6.406 3.383,0 4.868,3.062 4.868,6.406"
                 style="fill:#c4122e;fill-opacity:1;fill-rule:nonzero;stroke:none"
                 id="path40"
                 inkscape:connector-curvature="0" /><path
                 d="m 259.988,16.793 c 0,4.156 2.887,7.555 7.426,7.555 4.52,0 7.402,-3.375 7.402,-7.555 0,-4.152 -2.882,-7.461 -7.402,-7.461 -4.539,0 -7.426,3.285 -7.426,7.461 m 12.297,0 c 0,3.344 -1.488,6.5 -4.871,6.5 -3.383,0 -4.891,-3.156 -4.891,-6.5 0,-3.344 1.508,-6.406 4.891,-6.406 3.383,0 4.871,3.062 4.871,6.406"
                 style="fill:#c4122e;fill-opacity:1;fill-rule:nonzero;stroke:none"
                 id="path42"
                 inkscape:connector-curvature="0" /><path
                 d="m 96.535,24.062 9.09,0 c 0.273,0 0.766,0.028 1.039,0.153 l 0.398,0 -0.062,-2.938 -0.398,0 c -0.336,0.918 -0.836,1.649 -2.622,1.649 l -3.839,0 0,-5.199 3.14,0 c 0.438,0 0.965,0.039 1.196,0.089 0.675,0.149 0.972,0.52 1.109,1.102 l 0.398,0 c -0.031,-0.441 -0.031,-1.418 -0.031,-1.711 0,-0.297 0.031,-1.352 0.031,-1.836 l -0.398,0 c -0.191,0.578 -0.453,1.016 -1.109,1.176 -0.231,0.058 -0.77,0.105 -1.196,0.105 l -3.14,0 0,-5.843 4.375,0 c 1.851,0 2.386,0.773 2.847,1.863 l 0.399,-0.09 -0.399,-2.996 c -1.379,0.121 -2.203,0.121 -3.765,0.121 l -4.59,0 c -0.43,0 -2.012,-0.059 -2.473,-0.059 l 0,0.399 c 0.805,0.152 1.277,0.551 1.277,1.328 l 0,11.02 c 0,0.679 -0.367,1.109 -1.277,1.261 l 0,0.406 z"
                 style="fill:#c4122e;fill-opacity:1;fill-rule:nonzero;stroke:none"
                 id="path44"
                 inkscape:connector-curvature="0" /><path
                 d="m 131.18,22.348 c 0,0.738 -0.438,1.14 -1.305,1.324 l 0,0.398 c 0.48,0 2.074,-0.058 2.527,-0.058 0.383,0 1.985,0.058 2.469,0.058 l 0,-0.398 c -0.859,-0.184 -1.309,-0.551 -1.309,-1.324 l 0,-10.973 c 0,-0.742 0.442,-1.145 1.309,-1.328 l 0,-0.399 c -0.484,0 -2.016,0.063 -2.469,0.063 -0.382,0 -2.047,-0.063 -2.527,-0.063 l 0,0.399 c 0.883,0.164 1.305,0.551 1.305,1.328 l 0,10.973 z"
                 style="fill:#c4122e;fill-opacity:1;fill-rule:nonzero;stroke:none"
                 id="path46"
                 inkscape:connector-curvature="0" /><path
                 d="m 153.492,10.059 c 0.906,0.214 1.41,0.8 1.742,1.593 l 4.61,11.086 c 0.195,0.461 0.418,1.403 0.418,1.403 l 1.293,0 c 0,0 0.23,-0.946 0.425,-1.403 l 4.868,-11.117 c 0.347,-0.766 0.726,-1.316 1.691,-1.562 l 0,-0.368 c -0.531,0 -2.168,0.032 -2.543,0.032 -0.371,0 -1.934,-0.032 -2.461,-0.032 l 0.004,0.368 c 0.707,0.175 0.953,0.531 0.953,0.886 0,0.293 -0.121,0.625 -0.269,0.977 l -1.035,2.363 -5.415,0 -0.945,-2.375 c -0.113,-0.273 -0.238,-0.66 -0.238,-0.914 0,-0.402 0.211,-0.723 1.015,-0.937 l -0.003,-0.368 c -0.477,0 -1.688,0.032 -1.989,0.032 l -2.125,-0.032 0.004,0.368 z m 9.196,5.394 -2.305,5.356 -2.137,-5.356 4.442,0 z"
                 style="fill:#c4122e;fill-opacity:1;fill-rule:nonzero;stroke:none"
                 id="path48"
                 inkscape:connector-curvature="0" /><path
                 d="m 151.598,13.273 -0.16,-3.214 c -1.059,0.113 -2.567,-0.727 -5.106,-0.727 -5.297,0 -7.75,3.27 -7.75,7.43 0,4.41 3.106,7.586 7.625,7.586 2.227,0 3.605,-0.801 5.004,-0.727 l 0.133,-3.203 -0.41,0 c -0.817,1.887 -2.731,2.863 -4.704,2.863 -3.328,0 -5.125,-2.937 -5.125,-6.441 0,-2.871 1.45,-6.438 5.457,-6.438 2.27,0 3.907,0.809 4.622,2.871 l 0.414,0 z"
                 style="fill:#c4122e;fill-opacity:1;fill-rule:nonzero;stroke:none"
                 id="path50"
                 inkscape:connector-curvature="0" /><path
                 d="m 182.156,12.672 c -0.461,-1.09 -0.996,-1.863 -2.847,-1.863 l -4.379,0 0,11.539 c 0,0.773 0.453,1.14 1.308,1.324 l 0,0.398 c -0.484,0 -2.082,-0.058 -2.468,-0.058 -0.45,0 -2.047,0.058 -2.528,0.058 l 0,-0.398 c 0.867,-0.184 1.309,-0.586 1.309,-1.324 l 0,-10.973 c 0,-0.777 -0.426,-1.164 -1.309,-1.328 l 0,-0.399 c 0.485,0 2.145,0.063 2.528,0.063 0.011,0 0.019,0 0.031,0 l -0.004,0 4.594,0 c 1.558,0 2.386,0 3.765,-0.125 l 0.395,2.996 -0.395,0.09 z"
                 style="fill:#c4122e;fill-opacity:1;fill-rule:nonzero;stroke:none"
                 id="path52"
                 inkscape:connector-curvature="0" /><path
                 d="m 289.086,12.672 c -0.461,-1.09 -0.996,-1.863 -2.848,-1.863 l -4.375,0 0,11.539 c 0,0.773 0.449,1.14 1.309,1.324 l 0,0.398 c -0.484,0 -2.086,-0.058 -2.469,-0.058 -0.453,0 -2.047,0.058 -2.531,0.058 l 0,-0.398 c 0.867,-0.184 1.312,-0.586 1.312,-1.324 l 0,-10.973 c 0,-0.777 -0.429,-1.164 -1.312,-1.328 l 0,-0.399 c 0.484,0 2.148,0.063 2.531,0.063 0.008,0 0.02,0 0.027,0 l 4.59,0 c 1.563,0 2.387,0 3.766,-0.125 l 0.398,2.996 -0.398,0.09 z"
                 style="fill:#c4122e;fill-opacity:1;fill-rule:nonzero;stroke:none"
                 id="path54"
                 inkscape:connector-curvature="0" /><path
                 d="m 111.625,10.059 c 0.867,0.152 1.34,0.496 1.34,1.289 l 0,11.121 c 0,0.765 -0.469,1.07 -1.301,1.222 l 0,0.399 c 0.477,0 2.066,-0.063 2.496,-0.063 0.703,0 2.59,0.157 4.106,0.157 5.109,0 8.207,-2.86 8.207,-7.219 0,-4.231 -3.223,-7.363 -8.493,-7.363 -1.519,0 -3.257,0.121 -3.964,0.121 -0.43,0 -1.911,-0.063 -2.391,-0.063 l 0,0.399 z m 3.668,0.734 c 0.523,-0.09 1.387,-0.148 2.152,-0.148 4.301,0 6.543,2.417 6.543,6.203 0,3.75 -2.359,6.386 -6.39,6.386 -0.821,0 -1.754,-0.066 -2.305,-0.152 l 0,-12.289 z"
                 style="fill:#c4122e;fill-opacity:1;fill-rule:nonzero;stroke:none"
                 id="path56"
                 inkscape:connector-curvature="0" /><path
                 d="m 91.188,11.68 -0.754,10.711 c -0.055,0.718 0.277,1.086 1.125,1.261 l 0,0.407 c -0.563,0 -1.539,-0.047 -1.883,-0.047 -0.324,0 -1.016,0.047 -1.496,0.047 L 83.418,12.973 78.695,24.059 c -0.465,0 -1.238,-0.047 -1.566,-0.047 -0.348,0 -1.453,0.047 -2.016,0.047 l 0,-0.407 c 0.852,-0.14 1.242,-0.558 1.184,-1.257 L 75.496,11.68 c -0.09,-0.848 -0.543,-1.446 -1.457,-1.664 l 0,-0.368 2.059,0.032 c 0.297,0 1.519,-0.032 2,-0.032 l 0,0.368 c -0.965,0.257 -1.235,0.816 -1.2,1.464 l 0.625,9.508 4.907,-11.359 0.836,0 4.964,11.398 0.629,-9.547 c 0.036,-0.648 -0.226,-1.207 -1.191,-1.464 l 0,-0.368 c 0.48,0 2.195,0.032 2.496,0.032 l 2.473,-0.032 0,0.368 c -0.914,0.218 -1.364,0.73 -1.449,1.664"
                 style="fill:#c4122e;fill-opacity:1;fill-rule:nonzero;stroke:none"
                 id="path58"
                 inkscape:connector-curvature="0" /><path
                 d="M 30.25,73.535 0.238,73.531 0.176,49.52 C 0.176,20.086 29.691,1.336 29.988,1.148 L 30.082,1.09 c 0.078,0.004 0.266,0.129 0.266,0.129 5.011,3.281 30.031,21.027 30.031,48.152 L 60.387,73.48 C 60.324,73.547 30.25,73.535 30.25,73.535 m 29.961,-21.273 -59.438,0 0,3.465 59.438,0 0,-3.465 z"
                 style="fill:#c4122e;fill-opacity:1;fill-rule:nonzero;stroke:none"
                 id="path60"
                 inkscape:connector-curvature="0" /><path
                 d="m 10.367,70.535 c 1.988,0.852 4.219,0.242 6.41,0.363 0.567,-0.121 1.422,0.286 1.785,-0.324 0,-0.648 0,-1.258 0.043,-1.906 0.204,-0.445 0.852,-0.082 1.215,-0.324 0.203,-0.121 0.45,-0.246 0.489,-0.489 0.121,-0.285 0.039,-0.609 -0.121,-0.89 -0.407,-0.445 -0.934,-0.285 -1.461,-0.406 l -0.165,-0.247 c 0.083,-1.175 -0.242,-2.23 0,-3.363 -0.039,-0.246 -0.121,-0.57 0.165,-0.734 0.566,0 1.136,0 1.543,-0.363 0.16,-0.286 0.16,-0.649 0.078,-0.973 -0.243,-1.219 -2.11,0.16 -1.907,-1.258 0,-0.531 0.121,-1.258 -0.078,-1.746 -2.195,0 -4.425,0.16 -6.492,0.039 C 11.504,57.59 11.016,57.387 10.488,57.348 10.043,57.43 9.719,57.672 9.355,57.914 7.367,57.996 5.418,57.996 3.512,58.035 2.902,58.566 3.348,59.418 3.148,60.188 2.82,60.551 2.336,60.27 1.969,60.473 1.688,60.512 1.605,60.797 1.441,61 c 0,0.445 0,0.812 0.325,1.094 0.324,0.242 0.773,0.203 1.175,0.242 l 0.207,0.203 c -0.125,1.34 0.2,2.598 -0.082,4.02 -0.203,0.281 -0.57,0.039 -0.812,0.242 -0.367,0.082 -0.731,0.203 -0.852,0.609 -0.082,0.324 -0.164,0.649 0.164,0.934 0.446,0.484 1.215,-0.082 1.622,0.406 l 0.16,1.945 c 0.324,0.567 1.097,0.285 1.664,0.285 0.972,0.204 2.191,0.043 3.246,0 0.73,-0.039 1.461,-0.164 2.109,-0.445"
                 style="fill:#100f0d;fill-opacity:1;fill-rule:nonzero;stroke:none"
                 id="path62"
                 inkscape:connector-curvature="0" /><path
                 d="m 13.066,49.484 c -0.007,-0.039 -0.074,-0.375 -0.074,-0.375 -0.047,-0.23 -0.195,-0.39 -0.43,-0.347 l -0.847,0.144 c -0.348,0.094 -0.649,0.172 -0.926,0.074 -0.117,-0.082 -0.316,-0.242 -0.48,-0.429 0.058,-0.028 0.136,-0.063 0.136,-0.063 0.243,-0.093 0.641,-0.246 0.743,-0.726 0.011,-0.367 0.226,-0.668 0.414,-0.93 l 0.148,-0.215 c 0.066,-0.09 0.102,-0.172 0.102,-0.254 0,-0.066 -0.024,-0.136 -0.086,-0.203 l -0.395,-0.461 c 0,0 -0.226,-0.242 -0.23,-0.246 0,-0.008 -0.184,-0.465 -0.289,-0.73 0.089,-0.164 0.183,-0.313 0.296,-0.332 0.356,0.086 0.688,0.043 0.957,-0.024 l 0.559,-0.066 c -0.031,0.004 0.137,0.004 0.106,0 l 0.222,0.023 c 0.25,0.035 0.59,0.082 0.863,-0.14 0,0 0.254,-0.543 0.274,-0.582 0.051,-0.168 0.094,-0.336 0.094,-0.493 0,-0.218 -0.039,-0.425 -0.075,-0.605 l -0.05,-0.32 c -0.012,-0.067 -0.039,-0.157 -0.075,-0.211 -0.535,-0.774 -1.257,-1.395 -2.093,-1.793 0.05,0.031 0.058,0.039 0.058,0.039 -0.008,-0.012 -0.015,-0.051 -0.015,-0.098 0,-0.016 0.007,-0.035 0.007,-0.047 0.114,-0.09 0.434,-0.058 0.668,-0.027 l 0.227,0.023 c 0.387,0.02 0.723,0.145 1.078,0.278 l 1.152,0.312 c 0.2,0.055 0.34,-0.055 0.434,-0.238 0.219,-0.438 0.477,-0.75 0.707,-0.867 -0.019,0.015 0.02,0.031 0.211,0.195 0.223,0.188 0.598,0.508 1.16,0.297 0.039,-0.02 0.078,-0.039 0.11,-0.067 0.382,-0.292 0.5,-0.703 0.593,-1.039 0.071,-0.246 0.129,-0.461 0.274,-0.605 0.066,-0.066 0.109,-0.152 0.125,-0.246 0.004,-0.039 0.008,-0.082 0.008,-0.121 0,-0.434 -0.375,-0.598 -0.504,-0.653 L 18.152,37.285 C 18.117,37.266 18.078,37.23 18.039,37.223 L 17.098,37.066 C 16.77,37.043 16.5,36.992 16.289,36.887 c 0.035,-0.043 0.043,-0.078 0.113,-0.114 0.446,-0.238 1.004,-0.324 1.594,-0.418 l 0.32,-0.05 c -0.015,0 0.739,0.023 0.739,0.023 l 1.183,-0.031 c 0.16,-0.008 0.25,-0.086 0.324,-0.227 0.075,-0.136 0.02,-0.297 -0.066,-0.429 L 20.305,35.324 C 20.27,35.273 20.227,35.23 20.176,35.195 l -1.922,-1.293 c -0.078,-0.043 -1.137,-0.418 -1.137,-0.418 l -1.48,-0.582 c -0.02,-0.007 -0.086,-0.035 -0.102,-0.043 -0.867,-0.218 -1.457,0.258 -1.933,0.641 -0.336,0.273 -0.629,0.512 -0.969,0.484 -0.352,0 -0.571,-0.086 -0.84,-0.324 -0.09,-0.09 -0.121,-0.238 -0.121,-0.394 0,-0.051 0.008,-0.102 0.016,-0.149 0.035,-0.015 0.093,-0.043 0.093,-0.043 0.176,-0.062 0.594,-0.215 0.594,-0.73 -0.023,-0.668 -0.305,-1.199 -0.574,-1.711 -0.235,-0.445 -0.453,-0.863 -0.485,-1.336 -0.007,-0.031 -0.007,-0.063 -0.007,-0.094 0,-0.098 0.019,-0.187 0.078,-0.211 0.047,-0.019 0.054,-0.027 0.054,-0.027 0.036,-0.008 0.118,0.019 0.145,0.047 0.004,0 0.117,0.179 0.117,0.179 0.106,0.192 0.281,0.516 0.735,0.606 0.046,0.008 0.089,0.012 0.136,0.004 0.77,-0.086 1.196,-0.004 1.473,0.293 0.062,0.07 0.152,0.121 0.246,0.136 0.23,0.036 0.477,-0.035 0.672,-0.199 0.191,-0.164 0.308,-0.398 0.308,-0.625 0,0 0.012,-0.109 0.02,-0.207 0.461,0.082 0.793,0.512 1.172,1.16 l 0.152,0.254 c 0.059,0.098 0.192,0.172 0.297,0.203 l 0.313,0.09 c 0.359,0.117 0.847,0.274 1.332,-0.035 0.097,-0.062 0.164,-0.156 0.191,-0.266 0.027,-0.117 0.039,-0.23 0.039,-0.339 0,-0.411 -0.172,-0.754 -0.316,-1.043 0,0 -0.078,-0.192 -0.145,-0.356 0.738,0.168 1.262,0.809 1.801,1.504 l 0.324,0.406 c 0.102,0.235 0.332,0.711 0.93,0.711 0.043,0 0.086,-0.004 0.125,-0.019 0.254,-0.074 0.367,0.004 0.722,0.504 l 0.582,0.652 c 0.083,0.094 0.129,0.078 0.254,0.078 l 0.235,0 c 0.117,0 0.219,0.016 0.304,-0.066 0.079,-0.082 0.118,-0.133 0.118,-0.246 l -0.004,-0.567 c 0,0 0,-0.015 0,-0.023 0.066,0.023 0.441,0.164 0.578,0.219 0.019,0.007 0.812,0.5 0.812,0.5 0.102,0.062 0.246,0.078 0.364,0.046 l 2.984,-0.773 c 0.605,-0.231 0.723,-0.648 0.723,-1 0,-0.133 -0.016,-0.254 -0.028,-0.352 -0.015,-0.117 -0.027,-0.207 -0.027,-0.277 0,-0.082 0.016,-0.137 0.051,-0.176 0.086,-0.082 0.129,-0.195 0.129,-0.308 0,-0.059 -0.012,-0.118 -0.035,-0.172 -0.122,-0.281 -0.43,-0.617 -1.227,-0.617 -0.012,0 -1.512,-0.086 -1.512,-0.086 -1.246,-0.024 -2.426,-0.043 -3.281,-0.856 0,0 -0.816,-0.812 -0.816,-0.812 -0.079,-0.078 -0.184,-0.125 -0.293,-0.129 -0.582,-0.016 -1.012,-0.293 -1.512,-0.617 -0.449,-0.289 -0.922,-0.582 -1.524,-0.696 -0.437,-0.238 -0.925,-0.242 -1.328,-0.226 -0.359,0.015 -0.57,0.008 -0.718,-0.067 0.39,-0.464 1.109,-0.683 1.773,-0.867 0.063,-0.019 0.371,-0.062 0.371,-0.062 0.32,-0.016 0.805,-0.043 1.039,-0.512 0.028,-0.051 0.039,-0.102 0.047,-0.156 0.039,-0.403 0.113,-0.563 0.27,-0.625 0.027,0.015 0.07,0.035 0.07,0.035 0.148,0.094 0.551,0.332 0.961,-0.024 0.066,-0.07 0.707,-0.699 0.707,-0.699 l 0.785,-0.804 c 0.133,-0.137 0.109,-0.278 0.016,-0.45 -0.348,-0.64 -1.039,-0.527 -1.453,-0.465 l -0.34,0.043 c -0.032,0.043 -0.446,-0.023 -0.446,-0.023 -0.644,-0.117 -1.527,-0.273 -2.129,0.457 0.02,-0.02 0.059,-0.055 0.079,-0.074 l -0.594,0.5 c -0.481,0.429 -0.903,0.793 -1.492,0.812 -0.614,-0.176 -0.891,-0.363 -0.946,-0.683 -0.004,-0.012 -0.004,-0.024 -0.004,-0.024 0,0 0.149,-0.16 0.149,-0.16 L 16.18,21.34 c 0.07,-0.074 0.097,-0.156 0.097,-0.246 0,-0.028 -0.004,-0.051 -0.007,-0.078 -0.016,-0.125 -0.106,-0.211 -0.211,-0.282 -0.504,-0.336 -1.063,-0.843 -1.063,-1.445 0,-0.078 0.008,-0.156 0.027,-0.238 0.004,0.008 0.028,-0.047 0.047,-0.09 0.059,0.016 0.192,0.055 0.192,0.055 0.226,0.086 0.57,0.214 0.961,-0.004 0.129,-0.071 0.211,-0.176 0.222,-0.324 l 0.035,-0.461 c 0.02,-0.508 0.082,-0.743 0.247,-0.872 0.113,0.047 0.238,0.098 0.238,0.098 0.34,0.176 0.855,0.442 1.461,0 0.105,-0.039 0.265,0.031 0.613,0.231 l 0.566,0.265 c 0.059,0.028 0.067,0.02 0.129,0.02 1.055,0 1.481,-0.918 1.762,-1.524 0,0 0,-0.007 0.004,-0.007 0.016,-0.012 0.035,-0.028 0.035,-0.028 0.469,-0.363 0.86,-0.621 1.199,-0.527 0.016,0.047 0.039,0.086 0.039,0.144 0,0.102 -0.015,0.219 -0.043,0.364 -0.023,0.132 -0.05,0.297 -0.05,0.468 0,0.364 0.125,0.766 0.668,1.028 0.07,0.023 1.047,0.093 1.047,0.093 L 25.016,18 c 0.015,0 0.113,0.008 0.129,0.008 0.914,-0.086 1.64,-0.102 1.96,0.543 0.012,0.023 0.653,1.113 0.758,1.293 0.024,0.125 0.141,0.746 0.141,0.746 0.031,0.16 0.148,0.293 0.305,0.34 0.336,0.101 0.668,-0.02 0.929,-0.118 0,0 0.141,-0.039 0.227,-0.07 -0.153,0.516 -0.266,1.031 -0.266,1.563 0,0.265 0.02,0.535 0.059,0.812 0.195,0.754 0.519,1.352 0.945,1.778 0.125,0.125 0.313,0.164 0.473,0.097 l 0.199,-0.082 c 0.137,-0.055 0.23,-0.156 0.262,-0.301 l 0.191,-0.98 c 0.11,-0.641 0.215,-1.242 0.481,-1.793 0.043,-0.094 0.062,-0.129 0.039,-0.231 l -0.36,-1.453 -0.304,-1.148 c -0.27,-1.07 -0.993,-1.945 -2.004,-2.453 0.011,-0.004 -0.047,-0.09 -0.028,-0.137 0.012,-0.019 0.219,-0.012 0.387,-0.004 0,0 0.262,-0.008 0.41,-0.012 1.121,0.145 2.153,0.68 2.906,1.508 0.11,0.117 0.278,0.168 0.438,0.125 0.223,-0.058 0.395,0.028 0.684,0.192 0.343,0.199 0.871,0.496 1.503,0.117 0.25,-0.188 0.606,-0.16 0.985,-0.125 0.59,0.047 1.574,0.129 1.844,-1.016 0.003,-0.023 0,-0.152 0.003,-0.179 l 0.024,-0.532 c 0.066,-0.547 0.187,-1.558 -0.891,-1.847 -0.086,-0.024 -0.093,-0.043 -0.179,-0.012 l -1.114,0.418 c -0.867,0.426 -1.265,0.547 -1.703,0.043 -0.105,-0.11 -0.234,-0.266 -0.176,-0.379 0.153,-0.262 0.528,-0.918 -0.027,-1.391 0.035,0.032 0.07,0.071 0.094,0.114 l -0.063,-0.106 c -0.281,-0.476 -0.468,-0.84 -0.339,-1.16 0,0.012 0.054,-0.094 0.441,-0.012 0.449,0.188 0.922,0.004 1.305,-0.14 l 0.543,-0.161 c 0.054,-0.015 0.191,-0.058 0.234,-0.089 l 0.172,-0.137 c 0.359,-0.281 0.703,-0.524 1.066,-0.567 0.02,0.043 0.035,0.083 0.035,0.083 l 0.243,0.472 c 0.058,0.059 0.734,0.395 0.734,0.395 0.449,0.16 0.496,0.215 0.496,0.383 0.137,0.722 0.629,1.363 1.336,1.796 0.062,0.039 0.187,0.059 0.262,0.063 0.152,0.008 0.652,0.168 0.953,0.375 -0.012,0.012 -0.051,0.055 -0.051,0.055 l -0.18,0.191 c -0.05,0.055 -0.136,0.172 -0.156,0.246 -0.019,0.106 -0.031,0.207 -0.031,0.309 0,0.5 0.269,0.922 0.492,1.269 0.227,0.348 0.352,0.571 0.352,0.774 0,0.129 -0.051,0.25 -0.153,0.39 -0.039,0.051 -0.051,0.067 -0.062,0.133 l -0.129,0.715 c -0.055,0.457 -0.106,0.855 -0.426,1.098 -0.012,0.011 -0.773,0.402 -0.773,0.402 l -0.84,0.398 c -0.153,0.075 -0.203,0.203 -0.203,0.371 0,0.383 0.242,0.606 0.722,0.665 l 0.106,0.019 c 0.551,0.148 1.004,-0.023 1.367,-0.164 0.367,-0.137 0.496,-0.141 0.598,-0.086 -0.055,0.305 -0.36,0.637 -0.641,0.914 -0.48,0.348 -1.078,0.488 -1.715,0.641 -0.965,0.23 -1.965,0.472 -2.629,1.398 -0.054,0.078 -0.082,0.168 -0.082,0.258 0,0.113 0.043,0.223 0.129,0.309 l 0.117,0.117 c 0.106,0.105 0.258,0.148 0.403,0.117 1.207,-0.262 2.398,-0.004 3.187,0.687 0.473,0.622 1.074,1.372 1.992,1.68 0.657,0.52 0.797,1.375 0.797,2.496 0.047,0.567 0.281,1.055 0.676,1.449 0.016,0.012 0.859,0.418 0.859,0.418 0.278,0.082 0.379,0.133 0.434,0.184 -0.504,0.246 -1.059,0.477 -1.645,0.418 -0.089,-0.012 -0.175,0.008 -0.257,0.051 -0.258,0.144 -0.336,0.34 -0.356,0.48 -0.004,0.028 -0.004,0.059 -0.004,0.082 0,0.293 0.215,0.508 0.352,0.641 l 0.066,0.07 c 0.031,0.028 0.078,0.082 0.114,0.102 l 0.941,0.539 c 1.234,0.66 1.996,1.14 1.996,2.16 0,0.012 0,0.023 0,0.035 -0.02,0.051 -0.031,0.074 -0.043,0.102 C 46.938,36.703 46.797,36.637 46.633,36.5 L 45.98,36.062 c -0.597,-0.339 -1.285,-0.488 -1.953,-0.628 -0.66,-0.145 -1.281,-0.278 -1.8,-0.598 -0.071,-0.047 -0.149,-0.066 -0.231,-0.066 -0.246,0 -0.457,0.132 -0.547,0.351 -0.035,0.082 -0.047,0.168 -0.047,0.254 0,0.207 0.086,0.414 0.207,0.531 0.2,0.285 0.532,0.473 0.825,0.633 0.355,0.199 0.574,0.332 0.687,0.602 0,0 0.121,0.339 0.121,0.339 0.18,0.532 0.414,1.184 1.078,1.461 0.082,0.047 0.598,0.317 0.598,0.317 0.129,0.047 0.16,0.101 0.242,0.144 -0.039,0.024 -0.031,0.036 -0.09,0.051 -1.047,0.328 -2.058,-0.48 -2.57,-0.988 -0.039,-0.039 -0.082,-0.074 -0.137,-0.094 l -0.39,-0.164 c -0.684,-0.281 -1.387,-0.57 -1.856,-1.066 -0.047,-0.051 -0.109,-0.094 -0.176,-0.118 -0.199,-0.066 -0.433,-0.027 -0.609,0.098 -0.18,0.133 -0.281,0.332 -0.281,0.555 -0.164,1.617 1.125,2.793 2.16,3.738 l 0.254,0.231 c 0.027,0.023 0.148,0.082 0.183,0.097 l 0.633,0.328 c 0.5,0.317 1.121,0.707 1.895,0.352 0.605,-0.32 1.09,-0.543 1.601,-0.371 0.336,0.121 0.551,0.418 0.805,0.761 0.242,0.329 0.52,0.704 0.949,0.961 0.453,0.161 0.817,0.043 1.114,-0.05 0.121,-0.039 0.351,-0.114 0.414,-0.09 0.003,0 0.058,0.094 0.058,0.094 0.012,0.046 0.016,0.085 0.016,0.128 0,0.29 -0.203,0.567 -0.512,0.957 l -0.375,0.508 c -0.047,0.071 -0.07,0.141 -0.07,0.215 0,0.059 0.012,0.117 0.035,0.176 0.121,0.312 0.18,0.637 0.18,0.961 0,0.766 -0.325,1.516 -0.922,2.039 -0.172,0.09 -0.563,0.273 -0.961,0.254 0.051,-0.078 0.133,-0.211 0.133,-0.211 l 0.379,-0.816 c 0.007,-0.102 0.011,-0.2 0.011,-0.293 0,-1.793 -1.551,-2.571 -2.808,-3.2 l -1.086,-0.593 c -2.543,-1.274 -5.887,-3.321 -6.075,-6.668 0.036,-1.723 0.754,-3.372 2.075,-4.731 0.019,-0.019 0.047,-0.058 0.062,-0.086 l 0.465,-0.73 c 0.524,-0.785 1.102,-1.657 1.102,-2.696 0,-0.253 -0.036,-0.515 -0.114,-0.793 -0.441,-1.019 -1.593,-1.019 -2.027,-1.019 -2.5,0.164 -3.863,2.687 -4.855,4.527 l -0.153,0.285 c -0.015,0.032 -0.207,0.442 -0.207,0.442 -0.273,0.582 -0.558,1.183 -0.629,1.918 -0.011,0.129 0.035,0.258 0.125,0.351 0.121,0.121 0.446,0.364 0.906,0.055 0.051,-0.039 0.5,-0.754 0.5,-0.754 0.059,-0.133 0.098,-0.199 0.133,-0.258 0.039,0.125 0.114,0.243 0.114,0.379 0,0.434 -0.184,0.914 -0.364,1.379 l -0.054,0.149 c -0.137,0.218 -0.407,0.46 -0.692,0.714 -0.371,0.332 -0.758,0.676 -0.984,1.18 -0.024,0.051 -0.035,0.098 -0.039,0.152 0,0.024 0,0.047 0,0.071 0,0.593 0.527,0.738 0.73,0.793 0,0 0.078,0.023 0.125,0.039 -0.176,0.633 -0.289,1.301 -0.289,1.996 0,0.34 0.02,0.68 0.063,1.023 0.004,0.012 0.004,0.02 0.004,0.024 0,0.031 -0.012,0.031 -0.012,0.039 0,0 0.008,0.008 0.031,0.035 l 0.567,0.605 c 0.175,0.11 0.187,0.129 0.187,0.172 -0.191,0.735 -0.25,1.465 -0.25,2.176 0,0.293 0.012,0.582 0.02,0.867 0.007,0.067 0.21,0.723 0.21,0.723 0.11,0.297 0.188,0.523 0.188,0.723 0,0.074 -0.027,0.136 -0.051,0.207 -0.394,0.242 -0.457,0.664 -0.476,0.89 0,0 -0.035,0.215 -0.039,0.227 -0.008,0.004 -0.028,0.012 -0.028,0.012 0.055,-0.024 0.071,-0.02 0.125,-0.02 -1.051,0 -1.883,0.391 -2.687,0.762 l -0.918,0.402 c -0.211,0.055 -0.418,-0.023 -0.742,-0.156 l -0.485,-0.172 c -0.015,-0.004 -0.519,-0.094 -0.519,-0.094 -0.539,-0.09 -1.008,-0.164 -1.305,-0.484 -0.168,-0.207 -0.172,-0.453 -0.16,-0.91 l 0.004,-0.282 c 0,-0.046 -0.008,-0.093 -0.024,-0.136 -0.09,-0.266 -0.254,-0.375 -0.379,-0.426 -0.285,-0.113 -0.55,0.035 -0.691,0.113 l -0.066,0.031 c -0.782,0.434 -1.094,1.215 -0.875,2.02 0.039,0.137 -0.082,0.254 -0.133,0.297 -0.196,0.125 -0.563,0.23 -0.863,0.121 -0.247,-0.086 -0.372,-0.344 -0.555,-0.758 0,0 -0.063,-0.14 -0.106,-0.23 0,-0.036 -0.004,-0.067 -0.004,-0.098 0,-0.273 0.067,-0.562 0.18,-0.738 0.344,-0.352 0.844,-0.629 1.375,-0.922 l 1.274,-0.817 c 0.086,-0.054 0.105,-0.105 0.136,-0.199 0.047,-0.136 0.067,-0.269 0.067,-0.398 0,-0.469 -0.243,-0.84 -0.453,-1.121 0.011,-0.012 0.031,-0.028 0.031,-0.028 0.144,-0.101 0.426,-0.308 0.426,-0.675 0,-0.051 -0.004,-0.102 -0.016,-0.157 -0.031,-0.168 -0.156,-0.3 -0.32,-0.34 -0.774,-0.195 -1.543,-0.031 -2.114,0.442 -0.007,0.008 -0.379,0.5 -0.379,0.5 -0.121,0.207 -0.187,0.281 -0.261,0.316 -0.059,-0.054 -0.133,-0.23 -0.176,-0.336 l -0.18,-0.375 C 22.645,43.453 22.578,43.094 22.578,43.094 22.543,42.77 22.496,42.367 22.18,42.09 22.086,42.008 21.965,41.969 21.844,41.98 l -0.356,0.04 c -1.609,0.542 -3.066,1.347 -4.679,2.554 -0.704,0.535 -1.227,1.254 -1.735,1.949 l -0.39,0.528 c -0.032,0.043 -0.055,0.082 -0.071,0.133 l -0.144,0.507 c -0.27,0.973 -0.512,1.621 -1.203,1.836 -0.078,-0.015 -0.168,-0.035 -0.2,-0.043 m 1.039,-5.761 0,-0.004 0,0.004 z m -3.164,0.625 c 0.059,0.027 0.114,0.019 0.176,0.035 -0.062,0 -0.121,-0.012 -0.176,-0.035 m 14.504,-0.52 c 0.071,0.086 0.114,0.098 0.114,0.156 0,0 -0.004,0 -0.004,0.004 -0.035,-0.047 -0.078,-0.121 -0.11,-0.16 m 7.805,-5.371 c 0,-0.012 0.031,-0.004 0.059,-0.09 -0.016,0.047 -0.008,0.102 -0.024,0.149 -0.023,-0.039 -0.035,-0.051 -0.035,-0.059 m -9.582,-6.676 c 0,0 0.016,0.004 0.016,0.004 -0.016,0.004 -0.028,0.004 -0.059,0.031 l 0.043,-0.035 z m 0.035,-0.086 c 0.008,0.055 0.016,0.071 0.016,0.078 0,0 -0.004,0 -0.004,0 -0.008,-0.035 -0.012,-0.078 -0.012,-0.078 m -8.562,-2.554 c 0.011,0 0.019,0 0.031,0 -0.012,0 -0.012,0 -0.031,0 M 29.48,20.633 c 0,-0.047 0.012,-0.094 0.032,-0.149 -0.02,0.051 -0.012,0.11 -0.028,0.164 C 29.48,20.645 29.48,20.637 29.48,20.633 m 0.477,-4.235 c 0.043,0 0.121,-0.003 0.121,-0.003 -0.019,0 -0.086,0.003 -0.121,0.003"
                 style="fill:#ffffff;fill-opacity:1;fill-rule:nonzero;stroke:none"
                 id="path64"
                 inkscape:connector-curvature="0" /><path
                 d="m 0.535,49.531 c 0,7.004 0.004,14.809 0,23.934 l 59.899,0 c 0,0 -0.012,-3.57 -0.012,-24.086 0,-30.332 -30.195,-48.113 -30.195,-48.113 0,0 -29.692,18.679 -29.692,48.265 z"
                 style="fill:none;stroke:#100f0d;stroke-width:1.07099998;stroke-linecap:butt;stroke-linejoin:miter;stroke-miterlimit:4;stroke-dasharray:none;stroke-opacity:1"
                 id="path66"
                 inkscape:connector-curvature="0" /><path
                 d="m 42.344,14.613 0.004,0 c -0.004,0.004 -0.012,0.012 -0.02,0.016 l 0.02,0 -0.004,0 0.027,0 -0.012,0 0.012,0 -0.004,0 c -0.195,0.16 -0.433,0.484 -0.566,0.59 -0.239,1.058 1.41,1.761 0.586,2.902 -0.196,0.664 -0.039,1.527 -0.703,2.035 -0.473,0.391 -1.098,0.469 -1.649,0.824 0,0.274 0.356,0.196 0.551,0.274 0.863,0.234 1.644,-0.824 2.273,-0.039 0.079,0.59 -0.472,1.097 -0.863,1.488 -1.293,0.902 -3.254,0.551 -4.234,1.922 l 0.121,0.117 c 1.254,-0.273 2.625,-0.039 3.566,0.781 0.547,0.707 1.094,1.415 1.957,1.649 0.864,0.668 0.981,1.766 0.981,2.863 0.039,0.43 0.234,0.82 0.547,1.133 0.472,0.434 1.687,0.277 1.453,1.176 -0.668,0.355 -1.371,0.668 -2.157,0.59 -0.355,0.195 0.079,0.468 0.196,0.628 1.254,0.821 3.215,1.333 3.136,3.172 -0.117,0.196 -0.078,0.512 -0.394,0.551 -0.547,-0.078 -0.859,-0.59 -1.371,-0.824 -1.176,-0.668 -2.664,-0.551 -3.801,-1.254 -0.234,0 -0.156,0.313 -0.078,0.391 0.43,0.59 1.293,0.629 1.605,1.371 0.239,0.59 0.352,1.371 1.02,1.609 0.391,0.313 1.019,0.313 1.254,0.781 -0.039,0.278 -0.352,0.434 -0.59,0.512 -1.133,0.352 -2.23,-0.316 -3.016,-1.098 -0.824,-0.351 -1.761,-0.664 -2.39,-1.332 -0.117,-0.039 -0.313,0.039 -0.313,0.235 -0.156,1.566 1.254,2.703 2.274,3.644 0.746,0.2 1.371,1.098 2.234,0.703 0.586,-0.312 1.211,-0.621 1.918,-0.39 0.863,0.316 1.059,1.293 1.844,1.765 0.586,0.196 1.41,-0.668 1.762,0.157 0.199,0.863 -0.508,1.371 -0.899,2 0.469,1.215 0.117,2.625 -0.863,3.484 -0.473,0.277 -1.059,0.473 -1.606,0.316 -0.433,-0.55 0.391,-0.902 0.43,-1.449 0.195,-2.234 -2.234,-2.746 -3.684,-3.687 -2.746,-1.371 -6.074,-3.485 -6.273,-7.012 0.039,-1.961 0.863,-3.687 2.195,-5.059 0.707,-1.214 1.844,-2.351 1.41,-3.878 -0.273,-0.625 -1.015,-0.704 -1.605,-0.704 -2.352,0.157 -3.645,2.778 -4.625,4.582 -0.312,0.707 -0.703,1.372 -0.781,2.196 0.117,0.117 0.234,0.078 0.351,0 0.43,-0.391 0.391,-1.332 1.137,-1.215 0.586,0.824 0.156,1.801 -0.156,2.625 -0.434,0.746 -1.332,1.137 -1.688,1.922 -0.039,0.586 0.825,0.234 0.864,0.82 -0.313,1.02 -0.356,2.078 -0.239,3.024 0.16,0.429 0.789,0.386 0.789,0.937 -0.277,0.981 -0.277,1.961 -0.238,3.02 0.117,0.625 0.629,1.293 0.273,1.957 -0.703,0.195 -0.117,1.058 -0.781,1.254 -1.332,0 -2.312,0.707 -3.449,1.136 -0.59,0.156 -1.02,-0.195 -1.488,-0.312 -0.746,-0.157 -1.532,-0.157 -2.039,-0.707 -0.356,-0.43 -0.274,-0.899 -0.274,-1.489 -0.121,-0.351 -0.429,-0.039 -0.59,0 -0.546,0.313 -0.742,0.903 -0.586,1.489 0.079,0.277 -0.039,0.55 -0.277,0.746 -0.351,0.234 -0.859,0.351 -1.293,0.195 -0.547,-0.195 -0.703,-0.824 -0.937,-1.293 -0.043,-0.391 0.039,-0.863 0.234,-1.176 0.781,-0.824 1.879,-1.136 2.742,-1.839 0.156,-0.473 -0.156,-0.942 -0.469,-1.333 -0.039,-0.433 0.586,-0.433 0.508,-0.824 -0.625,-0.16 -1.254,-0.039 -1.722,0.352 -0.317,0.273 -0.395,0.863 -0.903,0.941 -0.468,0 -0.55,-0.629 -0.746,-0.941 -0.156,-0.352 -0.039,-0.942 -0.351,-1.215 l -0.352,0.039 c -1.609,0.547 -3.059,1.41 -4.469,2.469 -0.824,0.629 -1.41,1.57 -2.039,2.39 -0.312,0.981 -0.469,2.352 -1.722,2.664 -0.278,-0.039 -0.629,-0.078 -0.668,-0.39 l -0.079,-0.391 c -0.624,0 -1.253,0.43 -1.917,0.196 -0.317,-0.196 -0.629,-0.434 -0.825,-0.747 -0.039,-0.703 0.825,-0.429 0.942,-0.98 0,-0.508 0.39,-0.941 0.625,-1.293 -0.157,-0.273 -0.469,-0.43 -0.625,-0.703 l -0.395,-0.981 c 0.16,-0.316 0.356,-0.707 0.746,-0.746 0.547,0.239 1.02,-0.156 1.606,-0.078 0.355,-0.039 0.941,0.278 0.98,-0.312 0.196,-0.469 0,-0.903 -0.039,-1.332 -0.512,-0.746 -1.176,-1.297 -1.918,-1.649 -0.238,-0.156 -0.238,-0.508 -0.16,-0.742 0.273,-0.394 0.902,-0.234 1.332,-0.195 0.824,0.039 1.453,0.508 2.234,0.586 0.2,-0.391 0.512,-0.864 0.903,-1.059 0.629,-0.156 0.785,0.707 1.41,0.473 0.512,-0.395 0.355,-1.141 0.824,-1.61 0.039,-0.273 -0.234,-0.273 -0.39,-0.39 -0.668,-0.235 -1.61,0 -2.118,-0.547 -0.078,-0.317 0.196,-0.59 0.43,-0.707 0.59,-0.313 1.332,-0.395 2.039,-0.512 0.625,-0.078 1.293,0.16 1.879,0 L 19.93,35.559 18.012,34.266 c -0.864,-0.352 -1.805,-0.547 -2.586,-0.981 -1.215,-0.312 -1.727,1.215 -2.824,1.137 -0.469,0 -0.782,-0.156 -1.098,-0.43 -0.274,-0.273 -0.313,-0.707 -0.234,-1.058 0.156,-0.352 0.668,-0.196 0.668,-0.59 -0.04,-1.098 -0.981,-1.879 -1.059,-3.02 -0.043,-0.269 0.039,-0.621 0.351,-0.742 0.196,-0.117 0.512,-0.039 0.668,0.121 0.235,0.235 0.235,0.586 0.625,0.664 0.668,-0.078 1.372,-0.078 1.844,0.43 0.235,0.039 0.469,-0.195 0.469,-0.391 0,-0.273 0,-0.59 0.273,-0.703 0.981,-0.039 1.453,0.977 1.883,1.684 0.434,0.078 0.903,0.394 1.332,0.117 0.156,-0.668 -0.39,-1.137 -0.508,-1.766 0.039,-0.156 0.235,-0.312 0.43,-0.351 1.172,0.156 1.84,1.254 2.547,2.117 0.117,0.234 0.234,0.547 0.59,0.547 0.898,-0.27 1.137,0.824 1.683,1.219 l 0.235,0 c 0.082,-0.278 -0.117,-0.473 0,-0.747 0.39,-0.429 0.824,0.039 1.215,0.118 l 0.824,0.507 c 0.98,-0.312 2,-0.546 3.015,-0.781 0.825,-0.316 0,-1.176 0.512,-1.687 -0.117,-0.274 -0.472,-0.356 -0.824,-0.356 -1.723,-0.23 -3.723,0.238 -5.094,-1.054 l -0.824,-0.825 c -1.293,-0.039 -1.957,-1.136 -3.133,-1.332 -0.785,-0.551 -2,0.235 -2.512,-0.668 0.395,-0.82 1.375,-1.093 2.235,-1.328 0.355,-0.16 0.941,0.039 1.137,-0.355 0.039,-0.391 0.117,-0.864 0.589,-1.02 0.352,-0.113 0.547,0.391 0.864,0.121 0.429,-0.59 1.054,-0.867 1.41,-1.414 -0.277,-0.508 -0.942,-0.195 -1.41,-0.195 l -0.078,0.039 c -0.707,-0.078 -1.61,-0.43 -2.157,0.234 -0.746,0.551 -1.332,1.411 -2.39,1.411 -0.59,-0.157 -1.215,-0.391 -1.332,-1.059 -0.078,-0.391 0.312,-0.547 0.468,-0.781 -0.707,-0.473 -1.449,-1.215 -1.214,-2.153 0.078,-0.199 0.156,-0.433 0.429,-0.433 0.356,0 0.629,0.312 0.981,0.117 0.078,-0.59 -0.078,-1.492 0.629,-1.766 0.547,0.078 0.937,0.668 1.527,0.239 0.586,-0.278 1.059,0.273 1.566,0.429 0.825,0 1.137,-0.785 1.414,-1.371 0.508,-0.39 1.211,-1.019 1.918,-0.629 0.469,0.668 -0.429,1.531 0.469,1.961 0.551,0.156 1.02,-0.039 1.57,0.078 0.86,-0.078 1.918,-0.156 2.391,0.782 l 0.781,1.336 0.157,0.82 c 0.511,0.16 1.257,-0.664 1.492,0.117 -0.274,0.785 -0.356,1.57 -0.235,2.43 0.157,0.59 0.43,1.14 0.821,1.531 l 0.195,-0.078 c 0.238,-0.981 0.273,-1.961 0.707,-2.863 -0.078,-0.903 -0.551,-1.684 -0.668,-2.586 -0.234,-0.938 -0.898,-1.684 -1.762,-2.118 -0.195,-0.156 -0.351,-0.429 -0.234,-0.703 0.234,-0.433 0.82,-0.195 1.254,-0.273 1.215,0.156 2.351,0.742 3.172,1.644 0.863,-0.234 1.297,0.821 2.082,0.352 0.82,-0.629 2.308,0.469 2.625,-0.859 -0.121,-0.629 0.469,-1.762 -0.551,-2.04 -1.02,0.157 -2.195,1.489 -3.215,0.313 -0.234,-0.234 -0.39,-0.547 -0.234,-0.863 0.156,-0.274 0.351,-0.625 0.078,-0.86 -0.273,-0.472 -0.664,-1.058 -0.43,-1.648 0.196,-0.352 0.586,-0.352 0.942,-0.274 0.586,0.235 1.136,-0.273 1.722,-0.312 0.508,-0.395 1.02,-0.867 1.688,-0.824 0.273,0.156 0.234,0.511 0.429,0.742 0.43,0.355 1.333,0.277 1.333,1.062 0.117,0.586 0.617,1.106 1.128,1.422 0.118,-0.043 1.262,0.239 1.571,0.793"
                 style="fill:#100f0d;fill-opacity:1;fill-rule:nonzero;stroke:none"
                 id="path68"
                 inkscape:connector-curvature="0" /><path
                 d="m 42.344,14.613 0.004,0 c -0.004,0.004 -0.012,0.012 -0.02,0.016 l 0.02,0 -0.004,0 0.027,0 -0.012,0 0.012,0 -0.004,0 c -0.195,0.16 -0.433,0.484 -0.566,0.59 -0.239,1.058 1.41,1.761 0.586,2.902 -0.196,0.664 -0.039,1.527 -0.703,2.035 -0.473,0.391 -1.098,0.469 -1.649,0.824 0,0.274 0.356,0.196 0.551,0.274 0.863,0.234 1.644,-0.824 2.273,-0.039 0.079,0.59 -0.472,1.097 -0.863,1.488 -1.293,0.902 -3.254,0.551 -4.234,1.922 l 0.121,0.117 c 1.254,-0.273 2.625,-0.039 3.566,0.781 0.547,0.707 1.094,1.415 1.957,1.649 0.864,0.668 0.981,1.766 0.981,2.863 0.039,0.43 0.234,0.82 0.547,1.133 0.472,0.434 1.687,0.277 1.453,1.176 -0.668,0.355 -1.371,0.668 -2.157,0.59 -0.355,0.195 0.079,0.468 0.196,0.628 1.254,0.821 3.215,1.333 3.136,3.172 -0.117,0.196 -0.078,0.512 -0.394,0.551 -0.547,-0.078 -0.859,-0.59 -1.371,-0.824 -1.176,-0.668 -2.664,-0.551 -3.801,-1.254 -0.234,0 -0.156,0.313 -0.078,0.391 0.43,0.59 1.293,0.629 1.605,1.371 0.239,0.59 0.352,1.371 1.02,1.609 0.391,0.313 1.019,0.313 1.254,0.781 -0.039,0.278 -0.352,0.434 -0.59,0.512 -1.133,0.352 -2.23,-0.316 -3.016,-1.098 -0.824,-0.351 -1.761,-0.664 -2.39,-1.332 -0.117,-0.039 -0.313,0.039 -0.313,0.235 -0.156,1.566 1.254,2.703 2.274,3.644 0.746,0.2 1.371,1.098 2.234,0.703 0.586,-0.312 1.211,-0.621 1.918,-0.39 0.863,0.316 1.059,1.293 1.844,1.765 0.586,0.196 1.41,-0.668 1.762,0.157 0.199,0.863 -0.508,1.371 -0.899,2 0.469,1.215 0.117,2.625 -0.863,3.484 -0.473,0.277 -1.059,0.473 -1.606,0.316 -0.433,-0.55 0.391,-0.902 0.43,-1.449 0.195,-2.234 -2.234,-2.746 -3.684,-3.687 -2.746,-1.371 -6.074,-3.485 -6.273,-7.012 0.039,-1.961 0.863,-3.687 2.195,-5.059 0.707,-1.214 1.844,-2.351 1.41,-3.878 -0.273,-0.625 -1.015,-0.704 -1.605,-0.704 -2.352,0.157 -3.645,2.778 -4.625,4.582 -0.312,0.707 -0.703,1.372 -0.781,2.196 0.117,0.117 0.234,0.078 0.351,0 0.43,-0.391 0.391,-1.332 1.137,-1.215 0.586,0.824 0.156,1.801 -0.156,2.625 -0.434,0.746 -1.332,1.137 -1.688,1.922 -0.039,0.586 0.825,0.234 0.864,0.82 -0.313,1.02 -0.356,2.078 -0.239,3.024 0.16,0.429 0.789,0.386 0.789,0.937 -0.277,0.981 -0.277,1.961 -0.238,3.02 0.117,0.625 0.629,1.293 0.273,1.957 -0.703,0.195 -0.117,1.058 -0.781,1.254 -1.332,0 -2.312,0.707 -3.449,1.136 -0.59,0.156 -1.02,-0.195 -1.488,-0.312 -0.746,-0.157 -1.532,-0.157 -2.039,-0.707 -0.356,-0.43 -0.274,-0.899 -0.274,-1.489 -0.121,-0.351 -0.429,-0.039 -0.59,0 -0.546,0.313 -0.742,0.903 -0.586,1.489 0.079,0.277 -0.039,0.55 -0.277,0.746 -0.351,0.234 -0.859,0.351 -1.293,0.195 -0.547,-0.195 -0.703,-0.824 -0.937,-1.293 -0.043,-0.391 0.039,-0.863 0.234,-1.176 0.781,-0.824 1.879,-1.136 2.742,-1.839 0.156,-0.473 -0.156,-0.942 -0.469,-1.333 -0.039,-0.433 0.586,-0.433 0.508,-0.824 -0.625,-0.16 -1.254,-0.039 -1.722,0.352 -0.317,0.273 -0.395,0.863 -0.903,0.941 -0.468,0 -0.55,-0.629 -0.746,-0.941 -0.156,-0.352 -0.039,-0.942 -0.351,-1.215 l -0.352,0.039 c -1.609,0.547 -3.059,1.41 -4.469,2.469 -0.824,0.629 -1.41,1.57 -2.039,2.39 -0.312,0.981 -0.469,2.352 -1.722,2.664 -0.278,-0.039 -0.629,-0.078 -0.668,-0.39 l -0.079,-0.391 c -0.624,0 -1.253,0.43 -1.917,0.196 -0.317,-0.196 -0.629,-0.434 -0.825,-0.747 -0.039,-0.703 0.825,-0.429 0.942,-0.98 0,-0.508 0.39,-0.941 0.625,-1.293 -0.157,-0.273 -0.469,-0.43 -0.625,-0.703 l -0.395,-0.981 c 0.16,-0.316 0.356,-0.707 0.746,-0.746 0.547,0.239 1.02,-0.156 1.606,-0.078 0.355,-0.039 0.941,0.278 0.98,-0.312 0.196,-0.469 0,-0.903 -0.039,-1.332 -0.512,-0.746 -1.176,-1.297 -1.918,-1.649 -0.238,-0.156 -0.238,-0.508 -0.16,-0.742 0.273,-0.394 0.902,-0.234 1.332,-0.195 0.824,0.039 1.453,0.508 2.234,0.586 0.2,-0.391 0.512,-0.864 0.903,-1.059 0.629,-0.156 0.785,0.707 1.41,0.473 0.512,-0.395 0.355,-1.141 0.824,-1.61 0.039,-0.273 -0.234,-0.273 -0.39,-0.39 -0.668,-0.235 -1.61,0 -2.118,-0.547 -0.078,-0.317 0.196,-0.59 0.43,-0.707 0.59,-0.313 1.332,-0.395 2.039,-0.512 0.625,-0.078 1.293,0.16 1.879,0 L 19.93,35.559 18.012,34.266 c -0.864,-0.352 -1.805,-0.547 -2.586,-0.981 -1.215,-0.312 -1.727,1.215 -2.824,1.137 -0.469,0 -0.782,-0.156 -1.098,-0.43 -0.274,-0.273 -0.313,-0.707 -0.234,-1.058 0.156,-0.352 0.668,-0.196 0.668,-0.59 -0.04,-1.098 -0.981,-1.879 -1.059,-3.02 -0.043,-0.269 0.039,-0.621 0.351,-0.742 0.196,-0.117 0.512,-0.039 0.668,0.121 0.235,0.235 0.235,0.586 0.625,0.664 0.668,-0.078 1.372,-0.078 1.844,0.43 0.235,0.039 0.469,-0.195 0.469,-0.391 0,-0.273 0,-0.59 0.273,-0.703 0.981,-0.039 1.453,0.977 1.883,1.684 0.434,0.078 0.903,0.394 1.332,0.117 0.156,-0.668 -0.39,-1.137 -0.508,-1.766 0.039,-0.156 0.235,-0.312 0.43,-0.351 1.172,0.156 1.84,1.254 2.547,2.117 0.117,0.234 0.234,0.547 0.59,0.547 0.898,-0.27 1.137,0.824 1.683,1.219 l 0.235,0 c 0.082,-0.278 -0.117,-0.473 0,-0.747 0.39,-0.429 0.824,0.039 1.215,0.118 l 0.824,0.507 c 0.98,-0.312 2,-0.546 3.015,-0.781 0.825,-0.316 0,-1.176 0.512,-1.687 -0.117,-0.274 -0.472,-0.356 -0.824,-0.356 -1.723,-0.23 -3.723,0.238 -5.094,-1.054 l -0.824,-0.825 c -1.293,-0.039 -1.957,-1.136 -3.133,-1.332 -0.785,-0.551 -2,0.235 -2.512,-0.668 0.395,-0.82 1.375,-1.093 2.235,-1.328 0.355,-0.16 0.941,0.039 1.137,-0.355 0.039,-0.391 0.117,-0.864 0.589,-1.02 0.352,-0.113 0.547,0.391 0.864,0.121 0.429,-0.59 1.054,-0.867 1.41,-1.414 -0.277,-0.508 -0.942,-0.195 -1.41,-0.195 l -0.078,0.039 c -0.707,-0.078 -1.61,-0.43 -2.157,0.234 -0.746,0.551 -1.332,1.411 -2.39,1.411 -0.59,-0.157 -1.215,-0.391 -1.332,-1.059 -0.078,-0.391 0.312,-0.547 0.468,-0.781 -0.707,-0.473 -1.449,-1.215 -1.214,-2.153 0.078,-0.199 0.156,-0.433 0.429,-0.433 0.356,0 0.629,0.312 0.981,0.117 0.078,-0.59 -0.078,-1.492 0.629,-1.766 0.547,0.078 0.937,0.668 1.527,0.239 0.586,-0.278 1.059,0.273 1.566,0.429 0.825,0 1.137,-0.785 1.414,-1.371 0.508,-0.39 1.211,-1.019 1.918,-0.629 0.469,0.668 -0.429,1.531 0.469,1.961 0.551,0.156 1.02,-0.039 1.57,0.078 0.86,-0.078 1.918,-0.156 2.391,0.782 l 0.781,1.336 0.157,0.82 c 0.511,0.16 1.257,-0.664 1.492,0.117 -0.274,0.785 -0.356,1.57 -0.235,2.43 0.157,0.59 0.43,1.14 0.821,1.531 l 0.195,-0.078 c 0.238,-0.981 0.273,-1.961 0.707,-2.863 -0.078,-0.903 -0.551,-1.684 -0.668,-2.586 -0.234,-0.938 -0.898,-1.684 -1.762,-2.118 -0.195,-0.156 -0.351,-0.429 -0.234,-0.703 0.234,-0.433 0.82,-0.195 1.254,-0.273 1.215,0.156 2.351,0.742 3.172,1.644 0.863,-0.234 1.297,0.821 2.082,0.352 0.82,-0.629 2.308,0.469 2.625,-0.859 -0.121,-0.629 0.469,-1.762 -0.551,-2.04 -1.02,0.157 -2.195,1.489 -3.215,0.313 -0.234,-0.234 -0.39,-0.547 -0.234,-0.863 0.156,-0.274 0.351,-0.625 0.078,-0.86 -0.273,-0.472 -0.664,-1.058 -0.43,-1.648 0.196,-0.352 0.586,-0.352 0.942,-0.274 0.586,0.235 1.136,-0.273 1.722,-0.312 0.508,-0.395 1.02,-0.867 1.688,-0.824 0.273,0.156 0.234,0.511 0.429,0.742 0.43,0.355 1.333,0.277 1.333,1.062 0.117,0.586 0.617,1.106 1.128,1.422 0.118,-0.043 1.262,0.239 1.571,0.793 z"
                 style="fill:none;stroke:#100f0d;stroke-width:0.219;stroke-linecap:butt;stroke-linejoin:miter;stroke-miterlimit:4;stroke-dasharray:none;stroke-opacity:1"
                 id="path70"
                 inkscape:connector-curvature="0" /><path
                 d="m 24.398,48.922 c -0.117,-0.508 -0.078,-0.977 0.235,-1.41 0.824,-0.903 2.078,-1.176 2.586,-2.235 l -0.313,0.043 c -0.976,0.625 -1.879,1.371 -2.898,1.84 -0.395,0.274 -0.668,0.703 -0.59,1.215 0.082,0.352 0.195,0.746 0.59,0.824 0.195,0.039 0.39,-0.078 0.39,-0.277"
                 style="fill:#ffffff;fill-opacity:1;fill-rule:nonzero;stroke:none"
                 id="path72"
                 inkscape:connector-curvature="0" /><path
                 d="m 32.785,47.98 c 0.156,-0.23 0.039,-0.742 0.512,-0.781 0.117,0 0.234,-0.117 0.234,-0.234 -0.039,-0.395 -0.117,-0.824 -0.234,-1.215 -0.121,-0.316 -0.551,-0.434 -0.551,-0.863 0,-0.235 0.352,-0.352 0.391,-0.586 L 33.098,42.73 c -0.977,-0.312 -0.508,-1.527 -0.586,-2.156 -0.117,-0.508 0,-1.019 -0.039,-1.527 -0.235,-0.117 -0.668,-0.078 -0.785,-0.43 0,-0.59 0.277,-1.058 0.472,-1.527 0.352,-0.512 1.098,-0.629 1.137,-1.297 -0.512,-0.039 -0.985,0.316 -1.453,0.473 -0.742,0.39 -1.254,1.172 -1.684,1.879 -0.117,0.121 -0.273,0.121 -0.39,-0.04 -0.082,-0.468 -0.118,-1.136 -0.551,-1.449 -0.508,0.313 -0.469,1.567 -1.293,1.176 -0.274,-1.684 -1.41,-3.02 -2.391,-4.43 -0.234,-0.078 -0.273,-0.429 -0.586,-0.351 0.508,1.293 0.899,2.859 0.391,4.308 -0.117,0.278 -0.391,0.2 -0.59,0.079 -0.234,-0.153 -0.352,-0.547 -0.703,-0.43 -0.274,0.43 0.273,1.097 -0.356,1.375 -0.546,-0.117 -0.859,-0.59 -1.332,-0.824 -1.175,-0.707 -2.586,-0.981 -3.996,-1.02 -0.273,0 -0.508,0.078 -0.664,0.195 0.352,0.356 0.86,0.43 1.293,0.668 1.645,0.981 2.742,2.782 4.074,4.114 -0.117,0.586 -0.628,1.293 -0.078,1.843 0.43,0.039 0.586,-0.472 0.942,-0.589 0.586,-0.313 1.332,-0.508 1.957,-0.235 0.551,0.117 0.941,0.625 0.98,1.137 0.039,0.234 -0.117,0.351 -0.273,0.43 -0.156,0 -0.352,0 -0.43,0.16 0,0.273 0.195,0.468 0.43,0.508 0.664,-0.04 1.332,-1.45 1.801,-0.274 0.277,0.938 -0.586,1.645 -1.25,2.231 -0.161,0.195 -0.278,0.394 -0.196,0.668 0.508,0.312 -0.121,0.746 0.27,1.097 0.668,0.508 1.687,0.196 2.39,0.703 1.215,-0.035 2.079,-0.937 3.176,-1.215"
                 style="fill:#ffffff;fill-opacity:1;fill-rule:nonzero;stroke:none"
                 id="path74"
                 inkscape:connector-curvature="0" /><path
                 d="m 14.133,48.336 c 0.039,-0.195 0.078,-0.391 0,-0.547 -0.16,-0.16 -0.356,0 -0.473,0.074 -0.234,0.199 -0.351,0.512 -0.273,0.707 0.039,0.825 0.746,0.078 0.746,-0.234"
                 style="fill:#ffffff;fill-opacity:1;fill-rule:nonzero;stroke:none"
                 id="path76"
                 inkscape:connector-curvature="0" /><path
                 d="m 13.582,47.16 c 1.059,-0.512 1.844,-1.566 2.586,-2.469 1.687,-1.41 3.488,-2.625 5.527,-3.175 0.078,-0.313 -0.156,-0.586 -0.39,-0.821 -0.668,-0.707 -1.219,-1.531 -1.922,-2.16 -0.156,-0.039 -0.313,-0.039 -0.434,0.043 -0.703,0.664 -0.625,2.035 -1.84,2.074 -0.39,0.043 -0.707,-0.468 -1.097,-0.195 -0.391,0.316 0.117,1.02 -0.469,1.176 -0.668,-0.274 -1.215,-1.02 -2,-0.899 0.512,0.86 1.41,1.801 0.941,2.938 -0.117,0.512 -0.429,1.058 -0.902,1.254 -0.469,0.039 -0.746,-0.512 -1.215,-0.274 -0.195,0.43 -1.058,0.235 -0.707,0.786 0.278,0.468 1.453,0.546 0.981,1.332 -0.313,0.429 -1.059,0.195 -1.137,0.785 0.078,0.351 -0.234,0.82 0,1.054 0.941,0.079 1.527,-0.863 2.078,-1.449"
                 style="fill:#ffffff;fill-opacity:1;fill-rule:nonzero;stroke:none"
                 id="path78"
                 inkscape:connector-curvature="0" /><path
                 d="m 47.992,46.691 c 0.117,-0.629 -0.472,-1.019 -0.312,-1.609 0.156,-0.312 0.664,-0.391 0.625,-0.742 -1.489,-0.039 -1.762,-2 -3.254,-1.961 -0.625,0.117 -1.094,0.781 -1.84,0.469 -1.922,-0.899 -3.996,-2.231 -4.508,-4.508 -0.234,-0.863 -0.156,-1.84 0.473,-2.547 0.156,-0.078 0.351,-0.078 0.508,0 0.39,0.707 0.707,1.648 1.644,1.844 0.551,0.195 1.098,0.39 1.61,0.703 0.078,0 0.195,0.082 0.234,-0.078 -0.234,-0.664 -0.547,-1.489 -1.293,-1.723 -0.551,-0.469 -1.059,-1.019 -1.137,-1.727 -0.039,-0.351 -0.078,-0.82 0.196,-1.093 0.273,-0.235 0.589,0.078 0.824,0.234 1.019,1.254 2.547,1.41 4.074,1.488 0.078,-0.117 -0.117,-0.351 -0.274,-0.39 -1.292,-0.434 -2.507,-1.492 -2.937,-2.785 0.039,-0.192 0.156,-0.352 0.313,-0.43 0.624,0.078 1.136,0.469 1.8,0.391 0.157,-0.43 -0.508,-0.43 -0.664,-0.782 -1.215,-1.058 0,-3.449 -2.039,-3.8 -0.586,-0.161 -0.508,-0.868 -0.902,-1.215 -0.664,-0.868 -1.762,-1.098 -2.86,-0.981 -0.785,-0.078 -1.449,1.055 -2.117,0.313 0.078,-0.785 0.707,-1.215 1.098,-1.883 0.98,-0.941 2.351,-1.016 3.605,-1.41 0.157,-0.039 0.274,-0.157 0.352,-0.313 0,-0.277 -0.352,-0.199 -0.586,-0.156 -0.785,-0.121 -1.687,-0.234 -2.469,0.078 -0.117,0.039 -0.234,-0.121 -0.277,-0.234 C 38,20.98 38.977,20.668 39.566,20.195 40.152,19.922 40.938,20 41.211,19.293 l 0,-0.898 c 0.277,-0.434 0.434,-0.981 0.316,-1.532 -0.55,-0.625 -0.941,-1.449 -0.511,-2.273 -0.235,-0.192 -0.586,0 -0.821,-0.156 -0.277,-0.586 -1.019,-0.664 -1.218,-1.254 -0.039,-0.469 -0.313,-0.899 -0.782,-0.977 -0.394,0.035 -0.668,-0.16 -1.019,-0.082 -0.238,0.277 0.117,0.707 -0.313,0.863 -0.551,0.118 -0.746,-0.746 -1.332,-0.429 -0.277,0.156 -0.551,0.273 -0.668,0.547 -0.039,0.355 0.313,0.472 0.551,0.628 1.289,0.157 2.977,0.391 3.445,1.801 0.079,0.668 -0.234,1.215 -0.117,1.801 -0.195,0.746 -0.941,1.219 -1.683,1.297 -0.707,0.195 -1.489,-0.078 -2,0.43 -0.196,0.16 -0.43,0.316 -0.668,0.195 -0.196,-0.035 -0.274,-0.309 -0.508,-0.195 -0.195,0.195 -0.469,0.472 -0.707,0.195 -0.469,-0.938 -1.176,-1.957 -2.309,-2.152 -0.156,0.273 0.153,0.586 0.274,0.898 0.351,0.746 0.625,1.566 0.781,2.391 0.316,0.433 0.668,0.98 0.433,1.566 -0.472,1.336 -1.019,2.785 -0.628,4.316 0.273,1.801 -0.157,3.485 -1.489,4.7 -0.746,0.433 -1.371,1.175 -2.273,1.332 -0.59,0.195 -1.449,-0.039 -1.762,0.547 0.078,0.632 0.746,0.98 1.016,1.531 l 1.019,1.566 c 0.434,0.082 0.313,-0.547 0.746,-0.508 0.825,0 0.786,1.371 1.645,0.942 0.391,-0.551 1.019,-0.746 1.414,-1.215 0.547,-2.234 1.371,-4.387 2.898,-6.195 1.176,-1.528 2.981,-2.664 4.86,-2.114 0.508,0.43 1.215,0.903 1.332,1.645 0.512,3.57 -4.035,5.328 -3.684,8.859 0.313,3.332 3.723,5.133 6.426,6.426 1.492,0.785 3.375,1.844 3.492,3.762 -0.039,0.199 0,0.316 0.078,0.511 0.547,-0.195 0.508,-0.863 0.547,-1.371"
                 style="fill:#ffffff;fill-opacity:1;fill-rule:nonzero;stroke:none"
                 id="path80"
                 inkscape:connector-curvature="0" /><path
                 d="m 23.652,36.109 c 0.434,-0.078 0.942,0.469 1.137,-0.117 -0.078,-0.824 -0.117,-1.765 -0.508,-2.472 -0.394,-0.391 -0.98,-0.079 -1.41,-0.274 -0.59,-0.156 -0.707,-1.605 -1.449,-0.664 -0.317,0.117 -0.512,-0.199 -0.668,-0.355 -0.313,-0.747 -0.625,-1.489 -1.176,-2.075 -0.117,-0.078 -0.312,-0.16 -0.43,-0.039 -0.078,0.508 0.313,1.41 -0.433,1.567 -0.313,0.039 -0.586,-0.157 -0.86,-0.274 -0.589,0.039 -1.375,0.039 -1.687,-0.551 -0.078,-0.273 -0.117,-0.664 -0.469,-0.703 -0.355,0.157 -0.824,0.274 -0.98,0.743 -0.157,0.117 -0.391,0.277 -0.586,0.078 -0.317,-0.313 -0.434,-0.86 -0.942,-0.86 -0.394,0 -0.746,0.114 -1.058,0.274 0.078,0.902 1.097,1.019 1.722,1.371 1.254,0.273 2.196,1.058 3.45,1.293 1.961,0.746 3.527,2.195 5.054,3.683 0.239,0.078 0.473,0.196 0.707,0.196 0.157,-0.313 0.157,-0.742 0.586,-0.821"
                 style="fill:#ffffff;fill-opacity:1;fill-rule:nonzero;stroke:none"
                 id="path82"
                 inkscape:connector-curvature="0" /><path
                 d="m 14.094,32.5 c -0.356,-0.23 -0.903,-0.391 -1.336,-0.195 -0.235,0.234 -0.117,0.668 -0.156,1.019 0.117,0.278 0.472,0.196 0.668,0.078 0.273,-0.273 0.824,-0.429 0.824,-0.902"
                 style="fill:#ffffff;fill-opacity:1;fill-rule:nonzero;stroke:none"
                 id="path84"
                 inkscape:connector-curvature="0" /><path
                 d="m 30.867,27.445 c -0.043,-0.586 -0.078,-1.015 -0.394,-1.527 -0.664,-0.625 -1.293,-1.449 -1.528,-2.391 0,-0.664 -0.078,-1.293 -0.117,-1.922 -0.195,-0.156 -0.351,0.083 -0.473,0.2 -0.312,0.468 -0.234,1.527 -1.054,1.371 -0.434,-0.473 -0.863,-1.176 -0.59,-1.805 0.351,-0.508 1.059,-0.902 0.664,-1.566 -0.586,-0.317 -0.426,-1.215 -1.211,-1.293 -1.18,-0.16 -2.391,0.351 -3.332,-0.473 -0.316,-0.273 -0.512,-0.664 -0.668,-1.059 -0.547,-0.074 -0.391,0.668 -0.664,0.981 -0.195,0.316 -0.59,0.117 -0.863,0.273 -0.43,0.161 -0.864,0.629 -1.371,0.278 -0.434,-0.235 -0.942,-0.785 -1.454,-0.356 l -0.703,0.196 c -0.039,0.238 0.235,0.55 0.039,0.785 l -1.371,0.629 c -0.078,0.117 0.039,0.273 0.118,0.355 1.136,0.742 2.429,-0.121 3.761,0.117 0.864,0.309 1.688,0.153 2.625,0.117 0.512,-0.043 1.137,-0.16 1.449,0.27 0.2,0.277 0.278,0.668 0.082,0.98 -0.394,0.864 -1.648,1.059 -1.804,2.079 -0.078,0.195 -0.235,0.39 -0.43,0.472 -0.316,0.114 -0.512,-0.234 -0.824,-0.082 -0.078,0.278 -0.156,0.629 -0.469,0.746 -0.59,0 -1.293,-0.273 -1.805,0.118 0.079,0.312 0.473,0.238 0.708,0.394 0.824,0.156 1.527,0.703 2.273,1.055 l 1.137,0.16 c 1.132,1.84 3.445,1.723 5.406,1.801 l 1.922,0.586 c 0.664,-0.153 0.824,-0.938 0.941,-1.489"
                 style="fill:#ffffff;fill-opacity:1;fill-rule:nonzero;stroke:none"
                 id="path86"
                 inkscape:connector-curvature="0" /><path
                 d="m 18.363,21.098 c -0.351,-0.235 -0.824,-0.078 -1.215,-0.039 -0.234,0.195 -0.312,0.629 -0.273,0.859 0.586,0.277 1.215,-0.313 1.488,-0.82"
                 style="fill:#ffffff;fill-opacity:1;fill-rule:nonzero;stroke:none"
                 id="path88"
                 inkscape:connector-curvature="0" /><path
                 d="m 35.883,14.75 c 0.039,-0.195 -0.235,-0.16 -0.313,-0.16 -0.16,-0.035 -0.16,0.082 -0.238,0.16 0.039,0.352 0.473,0.156 0.551,0"
                 style="fill:#ffffff;fill-opacity:1;fill-rule:nonzero;stroke:none"
                 id="path90"
                 inkscape:connector-curvature="0" /><path
                 d="m 30.789,47.355 c 0.078,-0.273 -0.117,-0.507 -0.394,-0.55 -0.469,-0.035 -0.903,0 -1.254,0.355 -0.352,0.274 -0.157,0.746 -0.079,1.098 0.157,0.195 0.43,0.195 0.629,0.078 0.43,-0.234 0.786,-0.629 1.098,-0.981"
                 style="fill:#100f0d;fill-opacity:1;fill-rule:nonzero;stroke:none"
                 id="path92"
                 inkscape:connector-curvature="0" /><path
                 d="m 33.02,46.691 c 0,-0.316 -0.157,-0.629 -0.352,-0.863 -0.195,-0.117 -0.352,-0.039 -0.43,0.156 -0.082,0.352 0.078,0.664 0.274,0.864 0.156,0.117 0.468,0.074 0.508,-0.157"
                 style="fill:#100f0d;fill-opacity:1;fill-rule:nonzero;stroke:none"
                 id="path94"
                 inkscape:connector-curvature="0" /><path
                 d="m 30.512,43.867 -0.039,-0.664 c -0.664,-0.746 -0.664,-1.883 -1.684,-2.312 -0.273,-0.039 -0.512,0.117 -0.551,0.39 -0.039,0.43 -0.117,0.981 0.039,1.41 0.434,0.235 0.551,-0.625 0.903,-0.234 0.156,0.629 0.668,1.098 0.98,1.605 0.156,0.04 0.274,-0.078 0.352,-0.195"
                 style="fill:#100f0d;fill-opacity:1;fill-rule:nonzero;stroke:none"
                 id="path96"
                 inkscape:connector-curvature="0" /></g></g></g></g><path
         d="m 0.566,55.422 59.836,0 0,-4.117 -59.836,0 0,4.117 z"
         style="fill:#100f0d;fill-opacity:1;fill-rule:nonzero;stroke:#100f0d;stroke-width:0.219;stroke-linecap:butt;stroke-linejoin:miter;stroke-miterlimit:4;stroke-dasharray:none;stroke-opacity:1"
         id="path98"
         inkscape:connector-curvature="0" /><path
         d="m 45.059,54.684 6.793,0 0,-2.645 -6.793,0 0,2.645 z"
         style="fill:#ffffff;fill-opacity:1;fill-rule:nonzero;stroke:none"
         id="path100"
         inkscape:connector-curvature="0" /><path
         d="m 30.277,54.684 6.797,0 0,-2.645 -6.797,0 0,2.645 z"
         style="fill:#ffffff;fill-opacity:1;fill-rule:nonzero;stroke:none"
         id="path102"
         inkscape:connector-curvature="0" /><path
         d="m 15.395,54.687 6.797,0 0,-2.648 -6.797,0 0,2.648 z"
         style="fill:#ffffff;fill-opacity:1;fill-rule:nonzero;stroke:none"
         id="path104"
         inkscape:connector-curvature="0" /><path
         d="m 1.285,54.687 6.176,0 0,-2.648 -6.176,0 0,2.648 z"
         style="fill:#ffffff;fill-opacity:1;fill-rule:nonzero;stroke:none"
         id="path106"
         inkscape:connector-curvature="0" /><g
         id="g108"
         transform="translate(0,-0.640648)"><g
           id="g110"><g
             id="g112"
             clip-path="url(#clipPath114)"><g
               id="g118"><path
                 d="m 57.68,70.832 c 0.488,-0.609 0.164,-1.461 0.285,-2.191 0.527,-0.446 1.664,0.043 1.785,-0.973 0.082,-0.406 -0.16,-0.691 -0.367,-0.934 -0.363,-0.363 -1.012,0 -1.336,-0.406 -0.121,-1.215 0,-2.555 0,-3.933 0.367,-0.243 0.851,-0.204 1.258,-0.407 0.203,-0.246 0.406,-0.488 0.406,-0.812 -0.043,-0.324 -0.246,-0.567 -0.57,-0.688 -0.325,-0.164 -0.891,0 -1.055,-0.449 -0.16,-0.648 0.043,-1.379 -0.082,-2.066 C 57.559,57.77 57.031,57.77 56.543,57.77 l -4.785,0.039 c -0.446,-0.243 -0.934,-0.688 -1.543,-0.446 -1.012,0.649 -2.391,0.446 -3.57,0.485 l -3.571,0.043 c -0.648,0.566 -0.16,1.543 -0.363,2.23 -0.246,0.406 -0.895,0.246 -1.301,0.445 -0.363,0.164 -0.445,0.571 -0.406,0.895 0.043,0.406 0.406,0.609 0.773,0.691 0.282,0.16 0.809,-0.125 0.934,0.325 0,1.257 -0.082,2.472 -0.043,3.648 -0.082,0.73 -1.055,0.285 -1.461,0.57 -0.363,0.243 -0.402,0.688 -0.324,1.094 0.324,0.691 1.137,0.527 1.746,0.731 l 0.082,0.203 0.078,2.109 0.203,0.164 5.559,-0.125 c 0.652,0 1.219,-0.281 1.828,-0.484 1.176,0.89 2.918,0.445 4.34,0.687 0.972,-0.203 1.988,-0.039 2.961,-0.242"
                 style="fill:#100f0d;fill-opacity:1;fill-rule:nonzero;stroke:none"
                 id="path120"
                 inkscape:connector-curvature="0" /><path
                 d="m 57.68,70.832 c 0.488,-0.609 0.164,-1.461 0.285,-2.191 0.527,-0.446 1.664,0.043 1.785,-0.973 0.082,-0.406 -0.16,-0.691 -0.367,-0.934 -0.363,-0.363 -1.012,0 -1.336,-0.406 -0.121,-1.215 0,-2.555 0,-3.933 0.367,-0.243 0.851,-0.204 1.258,-0.407 0.203,-0.246 0.406,-0.488 0.406,-0.812 -0.043,-0.324 -0.246,-0.567 -0.57,-0.688 -0.325,-0.164 -0.891,0 -1.055,-0.449 -0.16,-0.648 0.043,-1.379 -0.082,-2.066 C 57.559,57.77 57.031,57.77 56.543,57.77 l -4.785,0.039 c -0.446,-0.243 -0.934,-0.688 -1.543,-0.446 -1.012,0.649 -2.391,0.446 -3.57,0.485 l -3.571,0.043 c -0.648,0.566 -0.16,1.543 -0.363,2.23 -0.246,0.406 -0.895,0.246 -1.301,0.445 -0.363,0.164 -0.445,0.571 -0.406,0.895 0.043,0.406 0.406,0.609 0.773,0.691 0.282,0.16 0.809,-0.125 0.934,0.325 0,1.257 -0.082,2.472 -0.043,3.648 -0.082,0.73 -1.055,0.285 -1.461,0.57 -0.363,0.243 -0.402,0.688 -0.324,1.094 0.324,0.691 1.137,0.527 1.746,0.731 l 0.082,0.203 0.078,2.109 0.203,0.164 5.559,-0.125 c 0.652,0 1.219,-0.281 1.828,-0.484 1.176,0.89 2.918,0.445 4.34,0.687 0.972,-0.203 1.988,-0.039 2.961,-0.242 z"
                 style="fill:none;stroke:#100f0d;stroke-width:0.223;stroke-linecap:butt;stroke-linejoin:miter;stroke-miterlimit:4;stroke-dasharray:none;stroke-opacity:1"
                 id="path122"
                 inkscape:connector-curvature="0" /><path
                 d="m 37.773,70.98 c 0.247,0.04 0.489,-0.164 0.692,-0.285 0.203,-0.769 -0.039,-1.418 0.164,-2.148 0.523,-0.203 1.297,-0.043 1.578,-0.692 0.125,-0.285 0.125,-0.769 -0.078,-1.015 -0.406,-0.528 -1.34,-0.039 -1.621,-0.649 -0.082,-1.461 -0.125,-2.472 0,-3.851 0.402,-0.406 1.133,-0.082 1.5,-0.61 0.199,-0.246 0.281,-0.527 0.199,-0.851 -0.324,-0.527 -1.012,-0.527 -1.578,-0.652 -0.246,-0.204 0,-0.567 -0.121,-0.852 -0.203,-0.527 0.281,-1.176 -0.328,-1.5 -1.66,-0.242 -3.242,0.082 -4.95,-0.039 l -1.621,-0.043 c -0.445,-0.285 -0.976,-0.731 -1.543,-0.406 l -1.015,0.449 c -1.215,-0.043 -2.352,0.039 -3.571,0 -0.808,0.039 -1.945,-0.328 -2.472,0.445 0,0.649 0.121,1.297 -0.043,1.946 -0.61,0.203 -1.621,-0.079 -1.945,0.691 -0.082,0.242 0,0.566 0.082,0.812 0.445,0.649 1.46,0.082 1.906,0.61 l -0.043,1.785 c 0.121,0.852 -0.039,1.539 -0.039,2.352 -0.61,0.242 -1.664,-0.082 -1.785,0.851 -0.082,0.488 0.203,0.895 0.648,0.973 0.406,0.121 0.973,-0.078 1.176,0.285 l 0.121,1.906 c 0.488,0.813 1.668,0.324 2.394,0.446 l 3.692,-0.04 c 0.57,-0.082 1.098,-0.648 1.664,-0.281 2.191,0.891 4.668,0.117 6.937,0.363"
                 style="fill:#100f0d;fill-opacity:1;fill-rule:nonzero;stroke:none"
                 id="path124"
                 inkscape:connector-curvature="0" /><path
                 d="m 37.773,70.98 c 0.247,0.04 0.489,-0.164 0.692,-0.285 0.203,-0.769 -0.039,-1.418 0.164,-2.148 0.523,-0.203 1.297,-0.043 1.578,-0.692 0.125,-0.285 0.125,-0.769 -0.078,-1.015 -0.406,-0.528 -1.34,-0.039 -1.621,-0.649 -0.082,-1.461 -0.125,-2.472 0,-3.851 0.402,-0.406 1.133,-0.082 1.5,-0.61 0.199,-0.246 0.281,-0.527 0.199,-0.851 -0.324,-0.527 -1.012,-0.527 -1.578,-0.652 -0.246,-0.204 0,-0.567 -0.121,-0.852 -0.203,-0.527 0.281,-1.176 -0.328,-1.5 -1.66,-0.242 -3.242,0.082 -4.95,-0.039 l -1.621,-0.043 c -0.445,-0.285 -0.976,-0.731 -1.543,-0.406 l -1.015,0.449 c -1.215,-0.043 -2.352,0.039 -3.571,0 -0.808,0.039 -1.945,-0.328 -2.472,0.445 0,0.649 0.121,1.297 -0.043,1.946 -0.61,0.203 -1.621,-0.079 -1.945,0.691 -0.082,0.242 0,0.566 0.082,0.812 0.445,0.649 1.46,0.082 1.906,0.61 l -0.043,1.785 c 0.121,0.852 -0.039,1.539 -0.039,2.352 -0.61,0.242 -1.664,-0.082 -1.785,0.851 -0.082,0.488 0.203,0.895 0.648,0.973 0.406,0.121 0.973,-0.078 1.176,0.285 l 0.121,1.906 c 0.488,0.813 1.668,0.324 2.394,0.446 l 3.692,-0.04 c 0.57,-0.082 1.098,-0.648 1.664,-0.281 2.191,0.891 4.668,0.117 6.937,0.363 z"
                 style="fill:none;stroke:#100f0d;stroke-width:0.223;stroke-linecap:butt;stroke-linejoin:miter;stroke-miterlimit:4;stroke-dasharray:none;stroke-opacity:1"
                 id="path126"
                 inkscape:connector-curvature="0" /><path
                 d="m 10.367,70.535 c 1.988,0.852 4.219,0.242 6.41,0.363 0.567,-0.121 1.422,0.286 1.785,-0.324 0,-0.648 0,-1.258 0.043,-1.906 0.204,-0.445 0.852,-0.082 1.215,-0.324 0.203,-0.121 0.45,-0.246 0.489,-0.489 0.121,-0.285 0.039,-0.609 -0.121,-0.89 -0.407,-0.445 -0.934,-0.285 -1.461,-0.406 l -0.165,-0.247 c 0.083,-1.175 -0.242,-2.23 0,-3.363 -0.039,-0.246 -0.121,-0.57 0.165,-0.734 0.566,0 1.136,0 1.543,-0.363 0.16,-0.286 0.16,-0.649 0.078,-0.973 -0.243,-1.219 -2.11,0.16 -1.907,-1.258 0,-0.531 0.121,-1.258 -0.078,-1.746 -2.195,0 -4.425,0.16 -6.492,0.039 C 11.504,57.59 11.016,57.387 10.488,57.348 10.043,57.43 9.719,57.672 9.355,57.914 7.367,57.996 5.418,57.996 3.512,58.035 2.902,58.566 3.348,59.418 3.148,60.188 2.82,60.551 2.336,60.27 1.969,60.473 1.688,60.512 1.605,60.797 1.441,61 c 0,0.445 0,0.812 0.325,1.094 0.324,0.242 0.773,0.203 1.175,0.242 l 0.207,0.203 c -0.125,1.34 0.2,2.598 -0.082,4.02 -0.203,0.281 -0.57,0.039 -0.812,0.242 -0.367,0.082 -0.731,0.203 -0.852,0.609 -0.082,0.324 -0.164,0.649 0.164,0.934 0.446,0.484 1.215,-0.082 1.622,0.406 l 0.16,1.945 c 0.324,0.567 1.097,0.285 1.664,0.285 0.972,0.204 2.191,0.043 3.246,0 0.73,-0.039 1.461,-0.164 2.109,-0.445 z"
                 style="fill:none;stroke:#100f0d;stroke-width:0.223;stroke-linecap:butt;stroke-linejoin:miter;stroke-miterlimit:4;stroke-dasharray:none;stroke-opacity:1"
                 id="path128"
                 inkscape:connector-curvature="0" /><path
                 d="m 10.082,70.027 0.164,-0.367 c 0.082,-2.715 0.082,-5.476 0.082,-8.316 L 10.246,60.289 C 9.559,60.25 8.867,60.613 8.098,60.531 7.324,60.613 6.473,60.453 5.781,60.656 5.375,61.59 5.66,62.523 5.582,63.535 c 0.039,2.027 0.078,4.504 0.078,6.695 0,0.161 0.203,0.243 0.324,0.286 1.422,-0.125 2.965,0.242 4.098,-0.489"
                 style="fill:#ffffff;fill-opacity:1;fill-rule:nonzero;stroke:none"
                 id="path130"
                 inkscape:connector-curvature="0" /><path
                 d="M 4.688,70.27 C 4.324,69.988 3.836,69.457 4,68.973 4.16,65.566 4,62.523 4.16,59.316 l 0.285,-0.324 c 1.582,0 3.328,0.164 4.867,-0.121 0.083,-0.043 0.083,-0.164 0.043,-0.246 -0.406,-0.16 -0.894,-0.078 -1.339,-0.078 l -4.141,0.078 c -0.281,0.246 -0.16,0.813 -0.16,1.137 0,0.406 0.121,0.894 -0.324,1.136 -0.571,0.122 -1.137,-0.043 -1.504,0.407 0.285,0.812 1.586,0.16 1.828,1.054 0.121,1.5 -0.121,3.004 -0.043,4.422 -0.16,0.813 -1.055,0.567 -1.621,0.692 -0.082,0.078 -0.203,0.199 -0.164,0.363 0.488,0.488 1.461,-0.082 1.828,0.609 0.16,0.649 0.039,1.258 0.121,1.867 0.203,0.204 0.566,0.204 0.852,0.122 l 0,-0.164 z"
                 style="fill:#ffffff;fill-opacity:1;fill-rule:nonzero;stroke:none"
                 id="path132"
                 inkscape:connector-curvature="0" /><path
                 d="m 16.129,70.23 c 0,-3.285 0,-6.41 -0.039,-9.617 -1.625,-0.16 -3.449,0.121 -5.074,-0.324 -0.364,0.324 -0.078,0.852 -0.161,1.301 -0.082,1.055 0,2.23 -0.043,3.324 0.043,1.582 -0.078,3.367 0.043,4.91 0.243,0.485 0.813,0.649 1.34,0.649 l 3.813,-0.039 0.121,-0.204 z"
                 style="fill:#ffffff;fill-opacity:1;fill-rule:nonzero;stroke:none"
                 id="path134"
                 inkscape:connector-curvature="0" /><path
                 d="m 17.996,70.27 c 0.121,-0.649 -0.16,-1.5 0.242,-2.149 0.407,-0.246 1.016,-0.121 1.422,-0.203 0.16,-0.164 0.121,-0.406 0.039,-0.57 -0.445,-0.446 -1.379,0.125 -1.621,-0.606 0,-1.582 -0.082,-3.125 0.039,-4.75 l 0.246,-0.203 c 0.528,-0.078 1.176,0.125 1.539,-0.281 0.039,-0.242 0,-0.488 -0.242,-0.57 -0.527,-0.122 -1.297,0.164 -1.582,-0.407 -0.125,-0.648 0.078,-1.297 -0.125,-1.945 l -0.281,-0.121 -5.723,0.082 c -0.121,0.078 0,0.16 0.043,0.242 l 0.567,0.203 4.625,-0.043 c 0.488,0.125 0.488,0.731 0.527,1.098 -0.039,2.273 0,4.262 -0.039,6.449 -0.043,1.098 0.164,2.152 -0.082,3.207 -0.039,0.242 -0.406,0.406 -0.445,0.692 0.242,0.121 0.691,0.121 0.851,-0.125"
                 style="fill:#ffffff;fill-opacity:1;fill-rule:nonzero;stroke:none"
                 id="path136"
                 inkscape:connector-curvature="0" /><path
                 d="m 44.125,70.309 c -0.082,-0.321 -0.488,-0.567 -0.609,-0.891 0.043,-3.328 0,-6.938 0.121,-10.387 l 0.285,-0.16 c 1.785,-0.043 3.691,0.363 5.234,-0.367 0.082,-0.039 0.043,-0.039 0,-0.082 -1.949,0.043 -3.894,-0.121 -5.801,0.043 l -0.164,0.203 c -0.078,0.73 0.082,1.418 -0.242,2.066 -0.449,0.407 -1.746,-0.117 -1.422,0.813 0.489,0.367 1.258,-0.121 1.543,0.488 0,1.703 0.082,3.207 -0.039,4.789 -0.367,0.485 -1.054,0.16 -1.543,0.281 -0.164,0.161 -0.285,0.407 -0.121,0.61 0.528,0.445 2.067,-0.121 1.785,1.137 0.16,0.527 -0.246,1.539 0.485,1.582 0.164,0 0.367,0.039 0.488,-0.125"
                 style="fill:#ffffff;fill-opacity:1;fill-rule:nonzero;stroke:none"
                 id="path138"
                 inkscape:connector-curvature="0" /><path
                 d="m 57.352,70.23 c 0.164,-0.769 -0.161,-1.542 0.285,-2.23 0.484,-0.121 1.258,0.16 1.5,-0.324 -0.039,-0.977 -1.379,-0.203 -1.664,-0.977 0.125,-1.539 -0.121,-2.797 0.043,-4.461 -0.164,-0.121 -0.204,-0.285 -0.082,-0.445 0.445,-0.367 1.015,0.238 1.461,-0.164 0.281,-0.082 0.121,-0.324 0.121,-0.488 -0.368,-0.528 -1.258,0.082 -1.5,-0.61 l -0.082,-2.027 -0.286,-0.121 -5.394,0.039 c -0.082,0.086 -0.043,0.125 0.039,0.164 l 0.648,0.242 4.098,0 c 0.203,0.043 0.488,0.203 0.488,0.488 -0.039,3.207 -0.082,6.532 -0.082,10.024 l -0.484,0.969 c 0.199,0.207 0.769,0.246 0.891,-0.079"
                 style="fill:#ffffff;fill-opacity:1;fill-rule:nonzero;stroke:none"
                 id="path140"
                 inkscape:connector-curvature="0" /><path
                 d="m 44.734,68.973 0,-8.723 c -0.082,-0.246 -0.367,-0.367 -0.527,-0.527 l -0.164,0.121 c -0.039,0.933 0.039,1.988 -0.039,2.879 l 0,0.691 c -0.043,1.906 -0.043,4.016 0.039,5.965 0.164,0.16 0.324,0.484 0.527,0.566 0.164,-0.363 0.082,-0.609 0.164,-0.972"
                 style="fill:#ffffff;fill-opacity:1;fill-rule:nonzero;stroke:none"
                 id="path142"
                 inkscape:connector-curvature="0" /><path
                 d="m 56.582,69.418 c -0.082,-2.273 -0.043,-4.422 0.039,-6.574 -0.039,-1.012 -0.039,-1.906 -0.039,-2.84 -0.043,-0.078 -0.043,-0.121 -0.121,-0.16 -0.691,0.281 -0.449,1.054 -0.488,1.664 0.039,0.851 -0.082,1.824 0.082,2.676 l -0.121,0.285 0.039,5.316 c 0.16,0.363 0.488,-0.164 0.609,-0.367"
                 style="fill:#ffffff;fill-opacity:1;fill-rule:nonzero;stroke:none"
                 id="path144"
                 inkscape:connector-curvature="0" /><path
                 d="m 17.184,69.539 c -0.039,-3.285 0.039,-6.531 -0.082,-9.492 -0.079,-0.164 -0.243,0.039 -0.364,0.121 -0.203,0.488 -0.039,1.094 -0.039,1.582 -0.125,2.637 0,5.316 0,7.992 0.16,0.203 0.403,-0.039 0.485,-0.203"
                 style="fill:#ffffff;fill-opacity:1;fill-rule:nonzero;stroke:none"
                 id="path146"
                 inkscape:connector-curvature="0" /><path
                 d="m 50.617,65.402 c -0.082,-0.203 -0.445,-0.203 -0.648,-0.121 l -0.203,0.078 c 0.121,0.45 0,0.977 0.363,1.301 0.367,-0.246 0.324,-0.812 0.488,-1.258"
                 style="fill:#ffffff;fill-opacity:1;fill-rule:nonzero;stroke:none"
                 id="path148"
                 inkscape:connector-curvature="0" /><path
                 d="m 16.738,59.602 c -0.121,-0.247 -0.488,-0.125 -0.73,-0.204 l -1.301,0 c -1.051,0.04 -2.109,0.122 -3.039,-0.082 -0.164,0.039 -0.324,0.161 -0.324,0.364 0.121,0.367 0.566,0.246 0.89,0.367 1.258,-0.039 2.758,0.039 3.977,0 0.203,-0.082 0.406,-0.242 0.527,-0.445"
                 style="fill:#ffffff;fill-opacity:1;fill-rule:nonzero;stroke:none"
                 id="path150"
                 inkscape:connector-curvature="0" /><path
                 d="M 9.922,59.762 C 9.961,59.559 9.762,59.355 9.555,59.277 8.258,59.641 6.84,59.398 5.457,59.559 l -0.039,0.043 c 0.082,0.242 0.285,0.445 0.566,0.445 1.383,0 2.723,0 3.938,-0.285"
                 style="fill:#ffffff;fill-opacity:1;fill-rule:nonzero;stroke:none"
                 id="path152"
                 inkscape:connector-curvature="0" /><path
                 d="m 49.766,59.641 c 0.121,-0.082 0.121,-0.286 0,-0.325 -0.489,-0.566 -1.094,0.122 -1.746,0 -1.055,0.122 -2.231,0 -3.286,0.122 0.282,0.894 1.539,0.363 2.231,0.527 0.933,-0.121 1.988,0.16 2.801,-0.324"
                 style="fill:#ffffff;fill-opacity:1;fill-rule:nonzero;stroke:none"
                 id="path154"
                 inkscape:connector-curvature="0" /><path
                 d="m 55.73,59.844 c 0.2,-0.121 0.403,-0.324 0.446,-0.528 -1.664,-0.203 -3.289,0.204 -4.871,-0.246 -0.243,0.043 -0.321,0.328 -0.243,0.489 0.325,0.367 0.852,0.285 1.34,0.367 l 3.328,-0.082 z"
                 style="fill:#ffffff;fill-opacity:1;fill-rule:nonzero;stroke:none"
                 id="path156"
                 inkscape:connector-curvature="0" /><path
                 d="m 11.262,58.992 c 0.078,-0.324 0.039,-0.73 -0.246,-0.894 -0.161,-0.203 -0.485,-0.243 -0.731,-0.121 -0.242,0.039 -0.281,0.324 -0.324,0.527 -0.082,0.445 0.367,0.609 0.609,0.934 0.325,-0.04 0.528,-0.243 0.692,-0.446"
                 style="fill:#ffffff;fill-opacity:1;fill-rule:nonzero;stroke:none"
                 id="path158"
                 inkscape:connector-curvature="0" /><path
                 d="m 50.941,58.746 c 0.039,-0.363 0.039,-0.891 -0.449,-0.891 -0.32,-0.039 -0.605,0.122 -0.687,0.407 -0.082,0.406 0.164,0.769 0.449,0.933 0.363,0.039 0.523,-0.246 0.687,-0.449"
                 style="fill:#ffffff;fill-opacity:1;fill-rule:nonzero;stroke:none"
                 id="path160"
                 inkscape:connector-curvature="0" /><path
                 d="m 36.113,70.148 c -0.043,-3.164 0.039,-6.41 -0.043,-9.574 l -0.16,-0.082 c -1.746,-0.164 -3.449,0.285 -5.031,-0.285 -0.285,0.164 -0.043,0.648 -0.121,0.934 l 0,8.441 c 0,0.281 0.199,0.527 0.445,0.609 0.445,0.325 1.055,0.2 1.621,0.282 l 3.207,-0.082 0.082,-0.243 z"
                 style="fill:#ffffff;fill-opacity:1;fill-rule:nonzero;stroke:none"
                 id="path162"
                 inkscape:connector-curvature="0" /><path
                 d="m 38.02,70.23 c 0,-0.73 -0.04,-1.378 0.121,-2.109 0.488,-0.445 1.867,0.203 1.582,-0.894 -0.446,-0.282 -1.055,-0.082 -1.543,-0.161 l -0.121,-0.164 c -0.204,-1.621 0.121,-3.285 0,-4.746 0.043,-0.164 0.121,-0.445 0.367,-0.484 0.445,-0.043 1.136,0.281 1.297,-0.285 -0.082,-0.977 -1.34,-0.082 -1.664,-0.856 -0.121,-0.726 0.203,-1.379 -0.079,-2.066 l -0.207,-0.121 c -2.066,0.039 -4.097,0.039 -6.043,0.082 -0.082,0.039 -0.042,0.16 0.043,0.199 l 0.36,0.203 c 1.625,0.164 3.41,0 5.113,0.164 0.246,0.039 0.449,0.242 0.406,0.485 0,3.085 0.043,6.289 0.043,9.738 -0.082,0.488 -0.57,0.773 -0.652,1.219 0.285,0 0.812,0.16 0.977,-0.204"
                 style="fill:#ffffff;fill-opacity:1;fill-rule:nonzero;stroke:none"
                 id="path164"
                 inkscape:connector-curvature="0" /><path
                 d="m 24.547,70.391 c -0.078,-0.364 -0.402,-0.485 -0.567,-0.77 -0.242,-0.648 0.04,-1.297 -0.082,-1.988 0.043,-2.797 0,-5.438 0.043,-8.195 0,-0.204 0.161,-0.446 0.364,-0.489 l 4.343,-0.078 c 0.243,-0.043 0.524,-0.125 0.688,-0.285 -0.078,-0.246 -0.406,-0.164 -0.609,-0.203 -1.622,0.039 -3.368,-0.082 -4.95,0.121 l -0.16,0.121 c -0.043,0.73 0.039,1.5 -0.285,2.152 -0.488,0.2 -1.098,0 -1.625,0.161 -0.242,0.121 -0.16,0.449 0,0.609 0.527,0.285 1.543,-0.16 1.828,0.57 -0.043,1.582 0.082,3.082 0,4.707 -0.449,0.649 -1.379,0.039 -1.785,0.649 0.16,0.933 1.461,0.121 1.824,0.89 l 0.121,1.907 c 0.246,0.246 0.571,0.164 0.852,0.121"
                 style="fill:#ffffff;fill-opacity:1;fill-rule:nonzero;stroke:none"
                 id="path166"
                 inkscape:connector-curvature="0" /><path
                 d="m 25.156,69.824 c 0.121,-2.801 -0.16,-5.316 0,-8.113 -0.242,-0.652 0.285,-1.586 -0.648,-1.746 -0.164,2.801 -0.043,5.801 -0.121,8.844 -0.082,0.488 0.203,0.933 0.609,1.179 l 0.16,-0.164 z"
                 style="fill:#ffffff;fill-opacity:1;fill-rule:nonzero;stroke:none"
                 id="path168"
                 inkscape:connector-curvature="0" /><path
                 d="m 37.207,69.336 c -0.039,-3.082 0.082,-6.41 -0.121,-9.41 -0.164,-0.043 -0.367,0.16 -0.406,0.324 -0.043,1.258 -0.164,2.516 -0.082,3.855 0.082,1.743 -0.121,3.813 0.082,5.598 0.203,0.121 0.527,-0.121 0.527,-0.367"
                 style="fill:#ffffff;fill-opacity:1;fill-rule:nonzero;stroke:none"
                 id="path170"
                 inkscape:connector-curvature="0" /><path
                 d="m 29.781,59.762 c 0.164,-0.039 0.367,-0.203 0.246,-0.407 l -0.324,-0.281 c -1.422,0.528 -3.207,0.16 -4.707,0.403 0.121,0.203 0.242,0.406 0.445,0.57 1.418,-0.121 2.961,0.078 4.34,-0.285"
                 style="fill:#ffffff;fill-opacity:1;fill-rule:nonzero;stroke:none"
                 id="path172"
                 inkscape:connector-curvature="0" /><path
                 d="m 36.234,59.965 c 0.204,-0.121 0.446,-0.324 0.446,-0.527 l -0.203,-0.083 c -1.704,-0.039 -3.45,0.204 -5.032,-0.203 -0.242,-0.039 -0.527,0 -0.566,0.286 0.16,0.367 0.648,0.488 1.055,0.527 1.461,0.121 2.878,0 4.3,0"
                 style="fill:#ffffff;fill-opacity:1;fill-rule:nonzero;stroke:none"
                 id="path174"
                 inkscape:connector-curvature="0" /><path
                 d="m 31,58.625 c 0,-0.324 -0.043,-0.73 -0.406,-0.73 -0.285,-0.04 -0.731,0 -0.731,0.406 0.082,0.285 0.325,0.527 0.61,0.691 0.285,0.082 0.445,-0.203 0.527,-0.367"
                 style="fill:#ffffff;fill-opacity:1;fill-rule:nonzero;stroke:none"
                 id="path176"
                 inkscape:connector-curvature="0" /><path
                 d="m 30.188,63.738 c 0.164,1.625 0.039,3.45 0.082,4.989 0,0.488 0.039,1.058 -0.325,1.382 -1.179,0.528 -2.761,0.243 -4.097,0.325 -0.082,-0.043 -0.246,0.039 -0.203,-0.125 0,-3.204 -0.043,-6.207 -0.043,-9.371 l 0.082,-0.364 c 0.972,-0.164 1.949,-0.082 2.964,-0.082 0.524,-0.082 1.051,-0.242 1.54,-0.324 0.039,1.094 0.121,1.949 0.039,3.004 l -0.039,0.566 z"
                 style="fill:#ffffff;fill-opacity:1;fill-rule:nonzero;stroke:none"
                 id="path178"
                 inkscape:connector-curvature="0" /><path
                 d="m 29.781,63.859 c -0.484,0.407 -0.609,1.016 -1.015,1.5 0.164,0.246 0.449,0.286 0.652,0.489 0.324,0.324 0.648,0.769 0.484,1.257 -0.039,0.407 -0.242,0.813 -0.648,1.016 -0.852,0.324 -1.945,0.203 -2.801,0.121 C 26.293,68.16 26.25,68 26.375,67.875 26.699,67.754 26.82,67.512 26.859,67.227 26.82,66.133 26.82,65.035 26.699,63.941 L 26.25,63.453 c 0.449,-0.406 1.059,-0.082 1.707,-0.203 0.16,0.285 -0.285,0.488 -0.367,0.812 0.082,0.325 0,0.774 0.203,1.055 0.609,-0.527 0.812,-1.379 1.543,-1.867 l 0.953,-0.066 -0.023,0.515 c -0.125,-0.082 -0.364,0.121 -0.485,0.16 m -1.258,1.989 c -0.281,0 -0.73,-0.203 -0.812,0.164 0.043,0.527 -0.199,1.215 0,1.703 0.367,0.285 0.937,0.16 1.219,-0.203 0.164,-0.285 0.164,-0.649 0.164,-0.973 -0.164,-0.285 -0.242,-0.609 -0.571,-0.691"
                 style="fill:#100f0d;fill-opacity:1;fill-rule:nonzero;stroke:none"
                 id="path180"
                 inkscape:connector-curvature="0" /><path
                 d="m 55.527,69.297 c 0,0.363 0.039,0.812 -0.164,1.137 l -1.461,0.039 c -1.054,-0.161 -2.23,0.164 -3.082,-0.364 -0.406,-0.488 -0.203,-1.054 -0.285,-1.625 0.098,-0.339 0.199,-0.687 0.297,-1.035 l -0.187,-0.429 -0.629,0.113 -0.161,0.351 c 0.071,0.25 0.141,0.5 0.192,0.758 -0.039,0.692 0.203,1.746 -0.688,2.031 -1.339,0.118 -2.558,0.161 -3.976,0.161 -0.082,0 -0.203,-0.043 -0.242,-0.122 0.039,-3.124 0,-5.804 0.039,-8.886 0,-0.367 -0.121,-0.852 0.285,-1.016 1.176,0.164 2.23,-0.039 3.367,0.043 0.445,0 0.73,-0.406 1.176,-0.285 0.121,1.258 0.121,2.758 0.082,4.137 -0.039,0.113 0.015,0.386 -0.164,0.433 l 0.008,0.258 0.695,-0.082 0.074,-0.234 c -0.027,-0.02 -0.047,-0.047 -0.086,-0.09 l -0.082,-4.18 c 0.043,-0.121 0.043,-0.445 0.285,-0.402 1.258,0.73 2.801,0.242 4.258,0.402 l 0.328,0.121 c 0.16,0.692 0.078,3.168 0.078,3.168 0.082,1.824 0.043,3.653 0.043,5.598"
                 style="fill:#ffffff;fill-opacity:1;fill-rule:nonzero;stroke:none"
                 id="path182"
                 inkscape:connector-curvature="0" /><path
                 d="m 50.82,64.715 c 0.16,-0.246 0.282,-0.488 0.242,-0.813 l -0.324,-0.449 0.203,-0.16 c 0.489,0.039 1.137,-0.121 1.582,0.078 -0.121,0.246 -0.406,0.328 -0.57,0.488 -0.562,1.496 -0.969,3.071 -1.414,4.61 l -0.492,-0.227 c -0.281,-1.379 -0.852,-2.637 -1.176,-4.058 -0.078,-0.282 -0.363,-0.325 -0.566,-0.485 -0.285,-0.082 -0.407,0.242 -0.528,0.406 -0.039,1.215 0.121,2.231 0.039,3.532 -0.039,0.199 0.204,0.441 0.407,0.242 0.324,-0.164 0.285,-0.57 0.406,-0.856 0.082,-0.121 0.285,-0.121 0.324,0.082 l 0.203,1.258 c -0.164,0.407 -0.527,-0.039 -0.851,0 -0.61,0.043 -1.461,-0.121 -2.032,0.242 -0.484,-0.16 -0.363,-0.847 -0.445,-1.296 -0.039,-0.079 0,-0.161 0.043,-0.204 0.402,0.247 0.606,0.895 1.172,0.731 l 0.043,-1.215 -0.121,-2.637 c -0.16,-0.207 -0.567,-0.285 -0.527,-0.57 0.691,-0.203 1.542,0 2.23,-0.082 0.406,-0.039 0.852,-0.121 1.18,0 0.078,0.082 0.039,0.203 -0.043,0.285 -0.243,0.121 -0.528,0.324 -0.446,0.649 0.121,0.203 0.161,0.609 0.528,0.488 0.09,0 0.129,-0.051 0.152,-0.109 l 0.578,-0.071 0,0.016 c 0.082,0.082 0.082,0.125 0.203,0.125 m -0.851,0.566 -0.203,0.078 c 0.121,0.45 0,0.977 0.363,1.301 0.367,-0.242 0.324,-0.812 0.488,-1.258 -0.082,-0.203 -0.445,-0.203 -0.648,-0.121"
                 style="fill:#100f0d;fill-opacity:1;fill-rule:nonzero;stroke:none"
                 id="path184"
                 inkscape:connector-curvature="0" /><path
                 d="m 54.527,68.043 c 0,-0.289 0.207,-0.828 -0.043,-1.035 -0.289,0.246 -0.328,0.496 -0.785,0.617 -0.25,0 -0.496,-0.039 -0.539,-0.328 -0.082,-0.871 0.785,-0.871 1.281,-1.449 0.457,-0.453 0.664,-1.2 0.457,-1.782 -0.191,-0.461 -0.414,-0.742 -0.867,-0.742 -0.414,-0.082 -0.707,0.207 -1.039,0.043 -0.082,0 -0.246,-0.086 -0.328,0.039 l 0.043,1.614 c 0.039,0.082 0.121,0.125 0.203,0.125 0.25,-0.54 0.082,-1.157 0.828,-1.196 0.25,0.039 0.453,0.067 0.492,0.399 0.086,1.449 -1.816,1.086 -1.773,2.574 0.039,0.332 0.082,0.621 0.25,0.914 0.328,0.539 1.074,0.207 1.57,0.539 0.207,0.082 0.207,-0.207 0.25,-0.332"
                 style="fill:#100f0d;fill-opacity:1;fill-rule:nonzero;stroke:none"
                 id="path186"
                 inkscape:connector-curvature="0" /><path
                 d="m 34.164,68.121 c -0.406,-0.203 -0.852,-0.527 -0.73,-1.098 -0.122,-0.972 -0.082,-1.988 -0.043,-3.039 l 0.652,-0.57 -0.039,-0.082 c -0.692,0 -1.34,-0.121 -2.031,0 -0.282,0.324 0.367,0.488 0.488,0.73 0.121,1.137 0.242,2.313 0.121,3.571 -0.121,0.367 -0.73,0.203 -0.57,0.609 0.609,0.082 1.422,0.082 2.031,0 l 0.121,-0.121 z"
                 style="fill:#100f0d;fill-opacity:1;fill-rule:nonzero;stroke:none"
                 id="path188"
                 inkscape:connector-curvature="0" /><path
                 d="m 14.465,67.348 c -0.406,-0.485 -0.488,0.449 -0.891,0.488 -0.246,0.043 -0.609,0.121 -0.812,-0.082 -0.082,-0.527 -0.164,-1.012 0,-1.5 0.16,-0.121 0.488,-0.082 0.691,-0.082 0.242,0.164 0.363,0.609 0.688,0.57 0.203,-0.203 -0.082,-0.527 0.039,-0.73 -0.078,-0.324 0.203,-0.692 -0.16,-0.813 -0.243,0.121 -0.364,0.567 -0.692,0.567 l -0.566,-0.039 c -0.203,-0.731 -0.121,-1.379 0,-2.071 0.324,-0.324 0.73,-0.039 1.097,-0.039 0.524,0.121 0.403,0.852 0.848,0.77 0.125,-0.285 0.164,-0.731 0.082,-1.055 l -0.242,-0.16 -2.879,0.039 c -0.125,0.039 -0.406,0.039 -0.285,0.242 0.933,0.57 0.406,1.664 0.527,2.559 -0.121,0.648 0.367,1.621 -0.488,2.027 -0.039,0.242 0.246,0.164 0.324,0.242 0.731,0 1.707,-0.281 2.274,0.324 0.445,-0.242 0.406,-0.808 0.445,-1.257"
                 style="fill:#100f0d;fill-opacity:1;fill-rule:nonzero;stroke:none"
                 id="path190"
                 inkscape:connector-curvature="0" /><path
                 d="M 10.043,68 C 9.23,67.348 9.191,66.215 8.828,65.281 8.5,64.754 8.664,63.984 8.137,63.535 7.934,63.453 7.773,63.656 7.73,63.82 7.445,65.078 7.082,66.336 6.637,67.512 6.594,67.875 5.742,67.957 6.23,68.242 6.836,68.324 7.285,68.16 7.852,68.203 7.973,67.836 7.406,67.633 7.57,67.188 7.934,66.66 7.812,65.848 8.258,65.32 l 0.203,0.203 c 0.039,0.934 1.094,1.786 0.203,2.598 0.203,0.363 0.813,0.121 1.219,0.242 0.078,-0.082 0.363,-0.16 0.16,-0.363"
                 style="fill:#100f0d;fill-opacity:1;fill-rule:nonzero;stroke:none"
                 id="path192"
                 inkscape:connector-curvature="0" /><path
                 d="M 5.094,69.906 C 5.254,66.621 5.051,63.453 5.133,60.332 5.094,60.168 4.93,59.965 4.727,59.965 c -0.243,1.015 -0.2,1.988 -0.122,3.004 -0.078,2.066 -0.039,4.379 -0.039,6.449 0.082,0.203 0.325,0.406 0.528,0.488"
                 style="fill:#ffffff;fill-opacity:1;fill-rule:nonzero;stroke:none"
                 id="path194"
                 inkscape:connector-curvature="0" /></g></g></g></g></g></g></svg>