<?xml version="1.0" encoding="UTF-8" standalone="no"?>
<svg
   xmlns:dc="http://purl.org/dc/elements/1.1/"
   xmlns:cc="http://creativecommons.org/ns#"
   xmlns:rdf="http://www.w3.org/1999/02/22-rdf-syntax-ns#"
   xmlns:svg="http://www.w3.org/2000/svg"
   xmlns="http://www.w3.org/2000/svg"
   viewBox="0 0 472.5 135"
   height="135"
   width="472.5"
   xml:space="preserve"
   version="1.1"
   id="svg2"><metadata
     id="metadata8"><rdf:RDF><cc:Work
         rdf:about=""><dc:format>image/svg+xml</dc:format><dc:type
           rdf:resource="http://purl.org/dc/dcmitype/StillImage" /><dc:title></dc:title></cc:Work></rdf:RDF></metadata><defs
     id="defs6"><clipPath
       id="clipPath16"
       clipPathUnits="userSpaceOnUse"><path
         id="path18"
         d="M 0,108 378,108 378,0 0,0 0,108 Z" /></clipPath></defs><g
     transform="matrix(1.25,0,0,-1.25,0,135)"
     id="g10"><g
       id="g12"><g
         clip-path="url(#clipPath16)"
         id="g14"><path
           id="path20"
           style="fill:#ffffff;fill-opacity:1;fill-rule:nonzero;stroke:none"
           d="M 40.888,17.324 C 10.074,33.538 9.835,55.522 9.835,89.792 l 62.094,0.004 c 0,-34.297 -0.103,-56.258 -31.041,-72.472" /><path
           id="path22"
           style="fill:none;stroke:#048ca7;stroke-width:0.72299999;stroke-linecap:butt;stroke-linejoin:miter;stroke-miterlimit:3.86400008;stroke-dasharray:none;stroke-opacity:1"
           d="M 40.888,17.324 C 10.074,33.538 9.835,55.522 9.835,89.792 l 62.094,0.004 c 0,-34.297 -0.103,-56.258 -31.041,-72.472 z" /><path
           id="path24"
           style="fill:#078cbc;fill-opacity:1;fill-rule:nonzero;stroke:none"
           d="M 40.907,20.068 C 10.9,35.499 12.047,61.216 12.047,87.336 l 57.599,0.006 c 0,-26.404 0.961,-51.843 -28.739,-67.274" /><path
           id="path26"
           style="fill:none;stroke:#078cbc;stroke-width:0.72299999;stroke-linecap:butt;stroke-linejoin:miter;stroke-miterlimit:3.86400008;stroke-dasharray:none;stroke-opacity:1"
           d="M 40.907,20.068 C 10.9,35.499 12.047,61.216 12.047,87.336 l 57.599,0.006 c 0,-26.404 0.961,-51.843 -28.739,-67.274 z" /><path
           id="path28"
           style="fill:#ffffff;fill-opacity:1;fill-rule:nonzero;stroke:none"
           d="m 30.634,45.924 c 0.188,0.081 0.174,-0.184 0.174,-0.425 l 0,-5.103 c 0,-0.392 -0.288,-0.52 -0.659,-0.542 l -0.826,-0.03 0,-0.428 c 1.347,0.01 1.839,0.033 2.339,0.033 0.505,0 0.99,-0.023 2.037,-0.033 l 0,0.428 -0.716,0.03 c -0.365,0.022 -0.656,0.15 -0.656,0.542 l 0,3.711 c 0,1.382 0.08,2.372 0.117,2.924 l -0.14,0.111 c -0.99,-0.385 -2.604,-0.967 -3.444,-1.163 -0.009,-0.239 0.038,-0.49 0.162,-0.803" /><path
           id="path30"
           style="fill:#ffffff;fill-opacity:1;fill-rule:nonzero;stroke:none"
           d="m 37.99,47.031 c -1.568,0 -2.445,-0.879 -2.445,-2.143 0,-0.83 0.442,-1.395 1.155,-1.774 -0.737,-0.324 -1.351,-1.026 -1.351,-1.869 0,-0.986 0.705,-2.009 2.318,-2.009 1.475,0 2.672,1.035 2.672,2.541 0,1.173 -0.805,1.765 -1.428,1.981 0.646,0.415 1.083,0.924 1.083,1.577 0,1.18 -0.942,1.696 -2.004,1.696 m -0.15,-2.858 c -0.541,0.231 -1.105,0.542 -1.105,1.234 0,0.657 0.47,1.023 1.105,1.023 0.749,0 1.184,-0.526 1.184,-1.254 0,-0.461 -0.227,-0.863 -0.679,-1.226 l -0.505,0.223 z m 0.034,-1.578 c 0.655,-0.284 1.197,-0.644 1.197,-1.451 0,-0.703 -0.504,-1.31 -1.231,-1.31 -0.863,0 -1.462,0.689 -1.462,1.529 0,0.702 0.274,1.108 0.794,1.545 l 0.702,-0.313" /><path
           id="path32"
           style="fill:#ffffff;fill-opacity:1;fill-rule:nonzero;stroke:none"
           d="m 43.637,45.924 c 0.185,0.081 0.175,-0.184 0.175,-0.425 l 0,-5.103 c 0,-0.392 -0.288,-0.52 -0.655,-0.542 l -0.83,-0.03 0,-0.428 c 1.348,0.01 1.842,0.033 2.338,0.033 0.504,0 0.989,-0.023 2.037,-0.033 l 0,0.428 -0.713,0.03 c -0.37,0.022 -0.658,0.15 -0.658,0.542 l 0,3.711 c 0,1.382 0.083,2.372 0.116,2.924 l -0.137,0.111 c -0.994,-0.385 -2.602,-0.967 -3.445,-1.163 -0.01,-0.239 0.034,-0.49 0.163,-0.803" /><path
           id="path34"
           style="fill:#ffffff;fill-opacity:1;fill-rule:nonzero;stroke:none"
           d="m 49.713,45.924 c 0.183,0.081 0.17,-0.184 0.17,-0.425 l 0,-5.103 c 0,-0.392 -0.287,-0.52 -0.654,-0.542 l -0.831,-0.03 0,-0.428 c 1.348,0.01 1.843,0.033 2.338,0.033 0.507,0 0.99,-0.023 2.039,-0.033 l 0,0.428 -0.714,0.03 c -0.368,0.022 -0.655,0.15 -0.655,0.542 l 0,3.711 c 0,1.382 0.08,2.372 0.114,2.924 l -0.14,0.111 c -0.988,-0.385 -2.601,-0.967 -3.443,-1.163 -0.01,-0.239 0.037,-0.49 0.16,-0.803" /><path
           id="path36"
           style="fill:#ffffff;fill-opacity:1;fill-rule:nonzero;stroke:none"
           d="m 47.815,57.201 c 0,0.441 0.306,0.51 0.904,0.634 l 0,0.598 c -0.863,-0.016 -1.89,-0.049 -2.753,-0.049 -0.864,0 -1.726,0.033 -2.592,0.049 l 0,-0.722 0.936,-0.033 c 0.562,-0.019 1.003,-0.108 1.003,-0.653 l 0,-2.326 c -0.738,-0.282 -1.46,-0.445 -2.238,-0.445 -3.174,0 -4.74,2.666 -4.74,5.711 0,2.787 1.553,4.868 4.477,4.868 1.444,0 3.014,-0.405 3.7,-1.215 l 0.09,-1.516 0.686,0 c 0.09,0.757 0.23,2.058 0.408,2.695 l -0.108,0.196 c -1.675,0.686 -3.24,0.826 -4.846,0.826 -3.757,0 -7.054,-2.025 -7.054,-6.079 0,-4.212 2.962,-6.469 6.984,-6.469 1.816,0 3.525,0.421 5.143,1.059" /><path
           id="path38"
           style="fill:none;stroke:#ffffff;stroke-width:0.72299999;stroke-linecap:butt;stroke-linejoin:miter;stroke-miterlimit:3.86400008;stroke-dasharray:none;stroke-opacity:1"
           d="m 47.815,57.201 c 0,0.441 0.306,0.51 0.904,0.634 l 0,0.598 c -0.863,-0.016 -1.89,-0.049 -2.753,-0.049 -0.864,0 -1.726,0.033 -2.592,0.049 l 0,-0.722 0.936,-0.033 c 0.562,-0.019 1.003,-0.108 1.003,-0.653 l 0,-2.326 c -0.738,-0.282 -1.46,-0.445 -2.238,-0.445 -3.174,0 -4.74,2.666 -4.74,5.711 0,2.787 1.553,4.868 4.477,4.868 1.444,0 3.014,-0.405 3.7,-1.215 l 0.09,-1.516 0.686,0 c 0.09,0.757 0.23,2.058 0.408,2.695 l -0.108,0.196 c -1.675,0.686 -3.24,0.826 -4.846,0.826 -3.757,0 -7.054,-2.025 -7.054,-6.079 0,-4.212 2.962,-6.469 6.984,-6.469 1.816,0 3.525,0.421 5.143,1.059 l 0,2.871 z" /><path
           id="path40"
           style="fill:#ffffff;fill-opacity:1;fill-rule:nonzero;stroke:none"
           d="m 33.855,75.333 c 0,3.028 3.299,5.482 7.364,5.482 4.071,0 7.371,-2.454 7.371,-5.482 0,-3.029 -3.3,-5.485 -7.371,-5.485 -4.065,0 -7.364,2.456 -7.364,5.485" /><path
           id="path42"
           style="fill:none;stroke:#048ca7;stroke-width:0.72299999;stroke-linecap:butt;stroke-linejoin:miter;stroke-miterlimit:3.86400008;stroke-dasharray:none;stroke-opacity:1"
           d="m 33.855,75.333 c 0,3.028 3.299,5.482 7.364,5.482 4.071,0 7.371,-2.454 7.371,-5.482 0,-3.029 -3.3,-5.485 -7.371,-5.485 -4.065,0 -7.364,2.456 -7.364,5.485 z" /><path
           id="path44"
           style="fill:#ffffff;fill-opacity:1;fill-rule:nonzero;stroke:none"
           d="m 32.501,72.396 17.5,0 0,4.779 -17.5,0 0,-4.779 z" /><path
           id="path46"
           style="fill:none;stroke:#048ca7;stroke-width:0.72299999;stroke-linecap:butt;stroke-linejoin:miter;stroke-miterlimit:3.86400008;stroke-dasharray:none;stroke-opacity:1"
           d="m 32.501,72.396 17.5,0 0,4.779 -17.5,0 0,-4.779 z" /><path
           id="path48"
           style="fill:#ffffff;fill-opacity:1;fill-rule:nonzero;stroke:none"
           d="m 23.977,69.766 17.195,5.361 17.26,-5.361" /><path
           id="path50"
           style="fill:none;stroke:#048ca7;stroke-width:1.19799995;stroke-linecap:butt;stroke-linejoin:miter;stroke-miterlimit:3.86400008;stroke-dasharray:none;stroke-opacity:1"
           d="m 23.977,69.766 17.195,5.361 17.26,-5.361 -34.455,0 z" /><path
           id="path52"
           style="fill:#ffffff;fill-opacity:1;fill-rule:nonzero;stroke:none"
           d="m 39.011,80.573 4.366,0.003 c 0.023,1.5 -1.181,2.64 -2.211,3.558 -1.021,-0.934 -2.155,-2.022 -2.155,-3.561" /><path
           id="path54"
           style="fill:none;stroke:#048ca7;stroke-width:0.72299999;stroke-linecap:butt;stroke-linejoin:miter;stroke-miterlimit:3.86400008;stroke-dasharray:none;stroke-opacity:1"
           d="m 39.011,80.573 4.366,0.003 c 0.023,1.5 -1.181,2.64 -2.211,3.558 -1.021,-0.934 -2.155,-2.022 -2.155,-3.561 z" /><path
           id="path56"
           style="fill:#ffffff;fill-opacity:1;fill-rule:nonzero;stroke:none"
           d="m 33.294,63.141 c 0,0.738 0.019,1.218 0.124,1.424 0.086,0.183 0.265,0.268 0.722,0.304 l 0.653,0.052 0,0.65 c -0.883,-0.013 -1.519,-0.052 -2.045,-0.052 -0.511,0 -1.163,0.039 -2.027,0.052 -0.264,-0.614 -0.546,-1.34 -0.863,-1.989 l -3.226,-6.662 -2.786,5.815 c -0.368,0.794 -1.003,2.114 -1.325,2.836 -0.703,-0.013 -1.408,-0.052 -2.114,-0.052 -0.702,0 -1.408,0.039 -2.114,0.052 l 0,-0.65 0.655,-0.052 c 0.456,-0.036 0.633,-0.121 0.719,-0.304 0.105,-0.206 0.125,-0.686 0.125,-1.424 l 0,-7.191 c 0,-0.742 -0.02,-1.216 -0.125,-1.428 -0.086,-0.176 -0.263,-0.268 -0.719,-0.3 l -0.655,-0.053 0,-0.653 c 0.672,0.02 1.358,0.052 2.028,0.052 0.669,0 1.341,-0.032 2.011,-0.052 l 0,0.653 -0.654,0.053 c -0.457,0.032 -0.636,0.124 -0.722,0.3 -0.108,0.212 -0.124,0.686 -0.124,1.428 l 0,7.282 0.034,0 4.02,-8.377 c 0.229,-0.493 0.459,-0.967 0.635,-1.46 l 0.6,0 c 0.281,0.703 0.686,1.571 1.057,2.326 l 3.593,7.491 0.037,0 0,-7.262 c 0,-0.742 -0.016,-1.216 -0.123,-1.428 -0.07,-0.144 -0.265,-0.212 -0.724,-0.248 l -0.651,-0.052 0,-0.706 c 0.725,0.02 1.692,0.052 2.752,0.052 1.038,0 2.008,-0.032 2.731,-0.052 l 0,0.706 -0.653,0.052 c -0.457,0.036 -0.652,0.104 -0.722,0.248 -0.105,0.212 -0.124,0.686 -0.124,1.428" /><path
           id="path58"
           style="fill:none;stroke:#ffffff;stroke-width:0.72299999;stroke-linecap:butt;stroke-linejoin:miter;stroke-miterlimit:3.86400008;stroke-dasharray:none;stroke-opacity:1"
           d="m 33.294,63.141 c 0,0.738 0.019,1.218 0.124,1.424 0.086,0.183 0.265,0.268 0.722,0.304 l 0.653,0.052 0,0.65 c -0.883,-0.013 -1.519,-0.052 -2.045,-0.052 -0.511,0 -1.163,0.039 -2.027,0.052 -0.264,-0.614 -0.546,-1.34 -0.863,-1.989 l -3.226,-6.662 -2.786,5.815 c -0.368,0.794 -1.003,2.114 -1.325,2.836 -0.703,-0.013 -1.408,-0.052 -2.114,-0.052 -0.702,0 -1.408,0.039 -2.114,0.052 l 0,-0.65 0.655,-0.052 c 0.456,-0.036 0.633,-0.121 0.719,-0.304 0.105,-0.206 0.125,-0.686 0.125,-1.424 l 0,-7.191 c 0,-0.742 -0.02,-1.216 -0.125,-1.428 -0.086,-0.176 -0.263,-0.268 -0.719,-0.3 l -0.655,-0.053 0,-0.653 c 0.672,0.02 1.358,0.052 2.028,0.052 0.669,0 1.341,-0.032 2.011,-0.052 l 0,0.653 -0.654,0.053 c -0.457,0.032 -0.636,0.124 -0.722,0.3 -0.108,0.212 -0.124,0.686 -0.124,1.428 l 0,7.282 0.034,0 4.02,-8.377 c 0.229,-0.493 0.459,-0.967 0.635,-1.46 l 0.6,0 c 0.281,0.703 0.686,1.571 1.057,2.326 l 3.593,7.491 0.037,0 0,-7.262 c 0,-0.742 -0.016,-1.216 -0.123,-1.428 -0.07,-0.144 -0.265,-0.212 -0.724,-0.248 l -0.651,-0.052 0,-0.706 c 0.725,0.02 1.692,0.052 2.752,0.052 1.038,0 2.008,-0.032 2.731,-0.052 l 0,0.706 -0.653,0.052 c -0.457,0.036 -0.652,0.104 -0.722,0.248 -0.105,0.212 -0.124,0.686 -0.124,1.428 l 0,7.191 z" /><path
           id="path60"
           style="fill:#ffffff;fill-opacity:1;fill-rule:nonzero;stroke:none"
           d="m 53.935,63.141 c 0,0.738 0.016,1.215 0.124,1.424 0.07,0.141 0.268,0.215 0.728,0.251 l 0.66,0.053 0,0.702 c -0.73,-0.013 -1.71,-0.052 -2.76,-0.052 -1.067,0 -2.047,0.039 -2.777,0.052 l 0,-0.702 0.659,-0.053 c 0.466,-0.036 0.659,-0.11 0.729,-0.251 0.108,-0.209 0.124,-0.686 0.124,-1.424 l 0,-7.198 c 0,-0.741 -0.016,-1.215 -0.124,-1.427 -0.07,-0.141 -0.263,-0.213 -0.729,-0.248 l -0.659,-0.053 0,-0.706 c 0.73,0.017 1.71,0.053 2.777,0.053 1.05,0 2.03,-0.036 2.76,-0.053 l 0,0.706 -0.66,0.053 c -0.46,0.035 -0.658,0.107 -0.728,0.248 -0.108,0.212 -0.124,0.686 -0.124,1.427 l 0,3.352 c 0.268,0.017 0.602,0.036 1.442,0.036 l 2.599,0 c 0.836,0 1.174,-0.019 1.442,-0.036 l 0,-3.352 c 0,-0.741 -0.016,-1.215 -0.124,-1.427 -0.073,-0.141 -0.268,-0.213 -0.732,-0.248 l -0.66,-0.053 0,-0.706 c 0.73,0.017 1.711,0.053 2.781,0.053 1.046,0 2.026,-0.036 2.76,-0.053 l 0,0.706 -0.66,0.053 c -0.466,0.035 -0.661,0.107 -0.732,0.248 -0.108,0.212 -0.124,0.686 -0.124,1.427 l 0,7.198 c 0,0.738 0.016,1.215 0.124,1.424 0.071,0.141 0.266,0.215 0.732,0.251 l 0.66,0.053 0,0.702 c -0.734,-0.013 -1.714,-0.052 -2.76,-0.052 -1.07,0 -2.051,0.039 -2.781,0.052 l 0,-0.702 0.66,-0.053 c 0.464,-0.036 0.659,-0.11 0.732,-0.251 0.108,-0.209 0.124,-0.686 0.124,-1.424 l 0,-2.79 C 59.15,60.334 58.812,60.318 57.976,60.318 l -2.599,0 c -0.84,0 -1.174,0.016 -1.442,0.033" /><path
           id="path62"
           style="fill:none;stroke:#ffffff;stroke-width:0.72299999;stroke-linecap:butt;stroke-linejoin:miter;stroke-miterlimit:3.86400008;stroke-dasharray:none;stroke-opacity:1"
           d="m 53.935,63.141 c 0,0.738 0.016,1.215 0.124,1.424 0.07,0.141 0.268,0.215 0.728,0.251 l 0.66,0.053 0,0.702 c -0.73,-0.013 -1.71,-0.052 -2.76,-0.052 -1.067,0 -2.047,0.039 -2.777,0.052 l 0,-0.702 0.659,-0.053 c 0.466,-0.036 0.659,-0.11 0.729,-0.251 0.108,-0.209 0.124,-0.686 0.124,-1.424 l 0,-7.198 c 0,-0.741 -0.016,-1.215 -0.124,-1.427 -0.07,-0.141 -0.263,-0.213 -0.729,-0.248 l -0.659,-0.053 0,-0.706 c 0.73,0.017 1.71,0.053 2.777,0.053 1.05,0 2.03,-0.036 2.76,-0.053 l 0,0.706 -0.66,0.053 c -0.46,0.035 -0.658,0.107 -0.728,0.248 -0.108,0.212 -0.124,0.686 -0.124,1.427 l 0,3.352 c 0.268,0.017 0.602,0.036 1.442,0.036 l 2.599,0 c 0.836,0 1.174,-0.019 1.442,-0.036 l 0,-3.352 c 0,-0.741 -0.016,-1.215 -0.124,-1.427 -0.073,-0.141 -0.268,-0.213 -0.732,-0.248 l -0.66,-0.053 0,-0.706 c 0.73,0.017 1.711,0.053 2.781,0.053 1.046,0 2.026,-0.036 2.76,-0.053 l 0,0.706 -0.66,0.053 c -0.466,0.035 -0.661,0.107 -0.732,0.248 -0.108,0.212 -0.124,0.686 -0.124,1.427 l 0,7.198 c 0,0.738 0.016,1.215 0.124,1.424 0.071,0.141 0.266,0.215 0.732,0.251 l 0.66,0.053 0,0.702 c -0.734,-0.013 -1.714,-0.052 -2.76,-0.052 -1.07,0 -2.051,0.039 -2.781,0.052 l 0,-0.702 0.66,-0.053 c 0.464,-0.036 0.659,-0.11 0.732,-0.251 0.108,-0.209 0.124,-0.686 0.124,-1.424 l 0,-2.79 C 59.15,60.334 58.812,60.318 57.976,60.318 l -2.599,0 c -0.84,0 -1.174,0.016 -1.442,0.033 l 0,2.79 z" /><path
           id="path64"
           style="fill:#5b5b5e;fill-opacity:1;fill-rule:nonzero;stroke:none"
           d="m 102.289,42.056 c 0,-0.683 -0.026,-0.824 -0.137,-1.124 -0.167,-0.497 -1.733,-0.964 -3.854,-0.964 -5.664,0 -8.858,3.933 -8.858,9.409 0,4.897 2.727,8.334 7.952,8.334 1.785,0 2.973,-0.19 3.853,-0.49 1.293,-0.471 2.282,-0.912 2.282,-2.202 l 0,-1.464 0.853,0 c 0,1.434 0.221,2.891 0.552,4.185 -1.267,0.36 -3.415,1.131 -6.825,1.131 -6.63,0 -11.609,-3.911 -11.609,-9.962 0,-6.906 4.951,-10.095 11.086,-10.095 1.899,0 4.872,0.712 7.237,1.402 l 0,4.623 c 0,0.797 0,0.908 0.302,1.015 l 0.799,0.275 -0.111,0.689 c -1.127,-0.025 -2.258,-0.051 -3.385,-0.051 -1.101,0 -2.228,0.026 -3.355,0.051 l 0,-0.826 2.285,-0.189 c 0.713,-0.056 0.933,-0.333 0.933,-0.964" /><path
           id="path66"
           style="fill:#5b5b5e;fill-opacity:1;fill-rule:nonzero;stroke:none"
           d="m 110.646,42.663 c 0,-1.046 -0.054,-1.758 -0.248,-2.064 -0.167,-0.275 -0.495,-0.357 -1.157,-0.412 l -0.99,-0.082 0,-0.824 c 0.99,0.027 1.9,0.082 2.944,0.082 1.708,0 3.879,-0.055 5.998,-0.082 2.037,-0.029 4.211,0.053 5.42,0.082 0,1.484 0.163,3.189 0.441,4.512 l -0.964,0 c -0.191,-1.653 -0.548,-2.865 -0.964,-3.081 -0.494,-0.274 -3.301,-0.359 -5.552,-0.359 -0.746,0 -1.547,0.026 -2.316,0.222 l 0,7.7 c 0.854,0.085 1.874,0.085 3.192,0.085 1.679,0 2.613,-0.107 2.917,-0.33 0.137,-0.082 0.192,-0.333 0.221,-0.692 l 0.137,-1.617 0.827,0 c -0.03,0.99 -0.084,2.032 -0.084,3.051 0,1.016 0.054,2.061 0.084,3.192 l -0.827,0 -0.137,-1.431 c -0.029,-0.356 -0.084,-0.604 -0.221,-0.716 -0.304,-0.192 -1.238,-0.303 -2.917,-0.303 -1.318,0 -2.311,0.026 -3.192,0.085 l 0,7.344 c 0.769,0.196 1.57,0.222 2.316,0.222 1.756,0 3.93,-0.026 5.389,-0.579 0.221,-0.085 0.247,-0.385 0.247,-0.744 l 0,-1.784 0.964,0 c 0,1.402 0.14,2.97 0.439,4.178 -1.071,0.056 -2.31,0.082 -3.55,0.082 -1.566,0 -4.098,-0.082 -6.493,-0.082 -1.566,0 -3.136,0.056 -4.647,0.082 l 0,-0.826 1.318,-0.079 c 0.662,-0.029 0.99,-0.137 1.157,-0.415 0.194,-0.3 0.248,-1.019 0.248,-2.061" /><path
           id="path68"
           style="fill:#5b5b5e;fill-opacity:1;fill-rule:nonzero;stroke:none"
           d="m 128.152,42.663 c 0,-1.046 -0.057,-1.758 -0.246,-2.064 -0.165,-0.275 -0.497,-0.357 -1.158,-0.412 l -1.211,-0.082 0,-0.824 c 1.103,0.027 2.204,0.082 3.193,0.082 1.098,0 2.091,-0.055 3.3,-0.082 l 0,0.824 -1.209,0.082 c -0.661,0.055 -0.993,0.137 -1.156,0.412 -0.191,0.306 -0.248,1.018 -0.248,2.064 l 0,12.683 0.057,0 12.96,-16.094 2.476,-0.438 c -0.028,0.328 -0.081,0.687 -0.081,1.02 l 0,15.185 c 0,1.042 0.053,1.761 0.245,2.061 0.163,0.278 0.494,0.357 1.156,0.415 l 1.209,0.079 0,0.826 c -1.209,-0.026 -2.202,-0.082 -3.3,-0.082 -0.99,0 -2.091,0.056 -3.193,0.082 l 0,-0.826 1.21,-0.079 c 0.663,-0.058 0.993,-0.137 1.158,-0.415 0.193,-0.3 0.247,-1.019 0.247,-2.061 l 0,-12.849 -0.083,0 -13.152,16.23 c -0.498,-0.026 -0.99,-0.082 -1.488,-0.082 -0.99,0 -2.09,0.056 -3.301,0.082 l 0,-0.826 1.211,-0.079 c 0.661,-0.058 0.993,-0.137 1.158,-0.415 0.189,-0.3 0.246,-1.019 0.246,-2.061" /><path
           id="path70"
           style="fill:#5b5b5e;fill-opacity:1;fill-rule:nonzero;stroke:none"
           d="m 152.263,42.663 c 0,-1.046 -0.055,-1.758 -0.249,-2.064 -0.163,-0.275 -0.492,-0.357 -1.153,-0.412 l -0.99,-0.082 0,-0.824 c 0.99,0.027 1.897,0.082 2.943,0.082 1.706,0 3.878,-0.055 5.999,-0.082 2.037,-0.029 4.208,0.053 5.42,0.082 0,1.484 0.163,3.189 0.437,4.512 l -0.963,0 c -0.191,-1.653 -0.549,-2.865 -0.961,-3.081 -0.495,-0.274 -3.301,-0.359 -5.558,-0.359 -0.744,0 -1.542,0.026 -2.313,0.222 l 0,7.7 c 0.857,0.085 1.873,0.085 3.194,0.085 1.677,0 2.614,-0.107 2.915,-0.33 0.137,-0.082 0.194,-0.333 0.22,-0.692 l 0.137,-1.617 0.827,0 c -0.029,0.99 -0.084,2.032 -0.084,3.051 0,1.016 0.055,2.061 0.084,3.192 l -0.827,0 -0.137,-1.431 c -0.026,-0.356 -0.083,-0.604 -0.22,-0.716 -0.301,-0.192 -1.238,-0.303 -2.915,-0.303 -1.321,0 -2.314,0.026 -3.194,0.085 l 0,7.344 c 0.771,0.196 1.569,0.222 2.313,0.222 1.762,0 3.933,-0.026 5.392,-0.579 0.22,-0.085 0.248,-0.385 0.248,-0.744 l 0,-1.784 0.965,0 c 0,1.402 0.138,2.97 0.44,4.178 -1.075,0.056 -2.312,0.082 -3.55,0.082 -1.57,0 -4.101,-0.082 -6.496,-0.082 -1.567,0 -3.135,0.056 -4.647,0.082 l 0,-0.826 1.321,-0.079 c 0.661,-0.029 0.99,-0.137 1.153,-0.415 0.194,-0.3 0.249,-1.019 0.249,-2.061" /><path
           id="path72"
           style="fill:#5b5b5e;fill-opacity:1;fill-rule:nonzero;stroke:none"
           d="m 172.791,57.025 c 0.769,0.196 1.568,0.333 2.806,0.333 2.145,0 4.345,-0.827 4.345,-3.803 0,-2.032 -1.65,-3.518 -3.576,-3.848 -0.826,-0.138 -1.679,-0.164 -2.422,-0.111 l -0.164,-0.327 c 0.468,-0.581 0.991,-1.101 1.431,-1.708 l 5.062,-6.796 c 0.358,-0.494 0.77,-0.96 1.128,-1.484 0.632,0.027 1.238,0.082 1.873,0.082 0.629,0 1.265,-0.055 1.98,-0.082 l 0,0.824 c -0.661,0.055 -1.268,0.166 -1.679,0.715 l -6.245,8.142 c 2.666,0.525 5.363,2.312 5.363,5.312 0,1.98 -1.152,4.211 -5.557,4.126 -1.596,-0.026 -3.192,-0.082 -4.814,-0.082 -1.622,0 -3.218,0.056 -4.677,0.082 l 0,-0.826 1.127,-0.079 c 0.662,-0.058 0.99,-0.137 1.157,-0.415 0.191,-0.3 0.248,-1.019 0.248,-2.061 l 0,-12.356 c 0,-1.046 -0.057,-1.758 -0.248,-2.064 -0.167,-0.275 -0.495,-0.383 -1.157,-0.412 l -1.321,-0.082 0,-0.824 c 1.431,0.053 2.726,0.082 4.073,0.082 1.267,0 2.557,-0.029 3.99,-0.082 l 0,0.824 -1.322,0.082 c -0.66,0.029 -0.986,0.137 -1.155,0.412 -0.194,0.306 -0.246,1.018 -0.246,2.064" /><path
           id="path74"
           style="fill:#5b5b5e;fill-opacity:1;fill-rule:nonzero;stroke:none"
           d="m 191.217,46.767 3.495,8.193 3.463,-8.193 -6.958,0 z m 4.622,11.855 -0.882,0 c -0.741,-1.983 -1.68,-4.018 -2.532,-5.942 L 187.53,41.536 c -0.304,-0.716 -0.824,-1.294 -1.485,-1.349 l -1.021,-0.082 0,-0.824 c 1.05,0.027 2.094,0.082 3.164,0.082 0.8,0 1.844,-0.055 3.166,-0.082 l 0,0.824 -1.018,0.082 c -0.853,0.084 -1.322,0.196 -1.322,0.771 0,0.44 0.717,2.283 0.964,2.861 l 0.768,1.843 7.926,0 1.267,-3.166 c 0.275,-0.659 0.575,-1.375 0.575,-1.761 0,-0.33 -0.549,-0.519 -1.123,-0.548 l -1.294,-0.082 0,-0.824 c 1.486,0.027 2.692,0.082 3.659,0.082 1.234,0 2.446,-0.055 3.655,-0.082 l 0,0.824 -0.934,0.082 c -0.494,0.055 -0.793,0.412 -1.101,0.934 -0.326,0.578 -0.634,1.323 -0.879,1.872 l -6.658,15.629" /><path
           id="path76"
           style="fill:#5b5b5e;fill-opacity:1;fill-rule:nonzero;stroke:none"
           d="m 212.263,55.019 c 0,1.042 0.058,1.761 0.251,2.061 0.163,0.278 0.49,0.386 1.153,0.415 l 1.32,0.079 0,0.826 c -1.431,-0.052 -2.724,-0.082 -3.989,-0.082 -1.346,0 -2.644,0.03 -4.074,0.082 l 0,-0.826 1.323,-0.079 c 0.66,-0.029 0.99,-0.137 1.153,-0.415 0.197,-0.3 0.252,-1.019 0.252,-2.061 l 0,-13.042 c 0,-0.745 -0.225,-1.378 -0.693,-1.623 l -0.853,-0.442 0,-0.631 c 0.716,0.027 1.406,0.082 2.343,0.082 1.705,0 3.519,-0.055 5.995,-0.082 2.038,-0.029 4.211,0.053 5.42,0.082 0.225,1.372 0.414,3.218 0.581,4.731 l -0.879,0 -0.333,-1.375 c -0.137,-0.575 -0.303,-1.513 -0.578,-1.761 -0.467,-0.438 -3.826,-0.523 -6.08,-0.523 -0.745,0 -1.542,0.026 -2.312,0.222" /><path
           id="path78"
           style="fill:#5b5b5e;fill-opacity:1;fill-rule:nonzero;stroke:none"
           d="m 249.401,55.019 c 0,1.042 0.052,1.761 0.242,2.061 0.164,0.278 0.497,0.386 1.157,0.415 l 1.319,0.079 0,0.826 c -1.431,-0.052 -2.718,-0.082 -3.988,-0.082 -1.35,0 -2.644,0.03 -4.074,0.082 l 0,-0.826 1.319,-0.079 c 0.663,-0.029 0.993,-0.137 1.157,-0.415 0.196,-0.3 0.248,-1.019 0.248,-2.061 l 0,-4.901 c -0.33,-0.022 -1.071,-0.055 -2.28,-0.055 l -6.439,0 c -1.212,0 -1.955,0.033 -2.284,0.055 l 0,4.901 c 0,1.042 0.056,1.761 0.248,2.061 0.163,0.278 0.494,0.386 1.157,0.415 l 1.316,0.079 0,0.826 c -1.431,-0.052 -2.721,-0.082 -3.988,-0.082 -1.347,0 -2.64,0.03 -4.072,0.082 l 0,-0.826 1.321,-0.079 c 0.66,-0.029 0.993,-0.137 1.156,-0.415 0.189,-0.3 0.248,-1.019 0.248,-2.061 l 0,-12.356 c 0,-1.046 -0.059,-1.758 -0.248,-2.064 -0.163,-0.275 -0.496,-0.383 -1.156,-0.412 l -1.321,-0.082 0,-0.824 c 1.432,0.053 2.725,0.082 4.072,0.082 1.267,0 2.557,-0.029 3.988,-0.082 l 0,0.824 -1.316,0.082 c -0.663,0.029 -0.994,0.137 -1.157,0.412 -0.192,0.306 -0.248,1.018 -0.248,2.064 l 0,6.132 c 0.329,0.029 1.072,0.059 2.284,0.059 l 6.439,0 c 1.209,0 1.95,-0.03 2.28,-0.059 l 0,-6.132 c 0,-1.046 -0.052,-1.758 -0.248,-2.064 -0.164,-0.275 -0.494,-0.383 -1.157,-0.412 l -1.319,-0.082 0,-0.824 c 1.43,0.053 2.724,0.082 4.074,0.082 1.27,0 2.557,-0.029 3.988,-0.082 l 0,0.824 -1.319,0.082 c -0.66,0.029 -0.993,0.137 -1.157,0.412 -0.19,0.306 -0.242,1.018 -0.242,2.064" /><path
           id="path80"
           style="fill:#5b5b5e;fill-opacity:1;fill-rule:nonzero;stroke:none"
           d="m 263.247,57.711 c 5.116,0 7.563,-3.659 7.563,-9.106 0,-5.06 -2.228,-8.637 -6.822,-8.637 -5.446,0 -7.703,5.06 -7.703,9.879 0,4.508 2.172,7.864 6.962,7.864 m -0.138,-18.897 c 6.025,0 10.644,4.731 10.644,10.644 0,6.109 -4.182,9.413 -10.068,9.413 -6.384,0 -10.344,-4.378 -10.344,-10.047 0,-6.161 4.182,-10.01 9.768,-10.01" /><path
           id="path82"
           style="fill:#5b5b5e;fill-opacity:1;fill-rule:nonzero;stroke:none"
           d="m 287.961,53.833 c 0,1.293 0.111,2.476 0.39,3.878 -1.131,0.441 -2.781,1.16 -4.98,1.16 -3.306,0 -7.043,-1.957 -7.043,-6.221 0,-2.862 1.702,-4.208 6.024,-4.705 2.806,-0.329 4.841,-1.074 4.841,-3.684 0,-2.725 -2.45,-4.238 -4.922,-4.238 -2.173,0 -4.349,1.045 -4.486,2.199 l -0.222,1.845 -0.879,0 c 0.029,-1.293 0.029,-2.779 -0.193,-4.211 0.908,-0.44 2.777,-1.042 4.704,-1.042 4.101,0 8.312,2.254 8.312,6.959 0,3.136 -2.45,4.097 -6.331,4.515 -3.438,0.383 -4.538,1.535 -4.538,3.408 0,2.724 2.146,4.015 4.073,4.015 1.072,0 2.228,-0.19 2.996,-0.66 1.02,-0.631 1.131,-0.908 1.212,-1.647 l 0.164,-1.571" /><path
           id="path84"
           style="fill:#5b5b5e;fill-opacity:1;fill-rule:nonzero;stroke:none"
           d="m 297.403,57.025 c 0.768,0.196 1.568,0.333 2.806,0.333 2.725,0 4.456,-1.241 4.456,-4.104 0,-2.339 -1.731,-4.096 -3.959,-4.096 -0.607,0 -1.212,0.078 -1.816,0.275 l 0.274,-0.991 c 0.549,-0.107 1.098,-0.163 1.649,-0.163 3.637,0 6.603,2.473 6.603,5.913 0,3.107 -3.025,4.267 -5.697,4.208 -1.481,-0.026 -3.077,-0.082 -4.672,-0.082 -1.571,0 -3.137,0.056 -4.953,0.082 l 0,-0.826 1.235,-0.079 c 0.687,-0.058 0.993,-0.196 1.186,-0.47 0.193,-0.275 0.274,-1.043 0.274,-2.006 l 0,-12.356 c 0,-1.046 -0.055,-1.758 -0.248,-2.064 -0.166,-0.275 -0.493,-0.383 -1.156,-0.412 l -1.323,-0.082 0,-0.824 c 1.43,0.053 2.727,0.082 4.077,0.082 1.264,0 2.557,-0.029 3.985,-0.082 l 0,0.824 -1.316,0.082 c -0.663,0.029 -0.99,0.137 -1.154,0.412 -0.195,0.306 -0.251,1.018 -0.251,2.064" /><path
           id="path86"
           style="fill:#5b5b5e;fill-opacity:1;fill-rule:nonzero;stroke:none"
           d="m 314.411,55.019 c 0,1.042 0.056,1.761 0.251,2.061 0.164,0.278 0.494,0.386 1.153,0.415 l 1.324,0.079 0,0.826 c -1.431,-0.052 -2.728,-0.082 -3.993,-0.082 -1.349,0 -2.639,0.03 -4.07,0.082 l 0,-0.826 1.32,-0.079 c 0.66,-0.029 0.99,-0.137 1.153,-0.415 0.193,-0.3 0.248,-1.019 0.248,-2.061 l 0,-12.356 c 0,-1.046 -0.055,-1.758 -0.248,-2.064 -0.163,-0.275 -0.493,-0.383 -1.153,-0.412 l -1.32,-0.082 0,-0.824 c 1.431,0.053 2.721,0.082 4.07,0.082 1.265,0 2.562,-0.029 3.993,-0.082 l 0,0.824 -1.324,0.082 c -0.659,0.029 -0.989,0.137 -1.153,0.412 -0.195,0.306 -0.251,1.018 -0.251,2.064" /><path
           id="path88"
           style="fill:#5b5b5e;fill-opacity:1;fill-rule:nonzero;stroke:none"
           d="m 325.473,42.663 c 0,-1.046 -0.052,-1.758 -0.245,-2.064 -0.17,-0.275 -0.497,-0.383 -1.157,-0.412 l -1.319,-0.082 0,-0.824 c 1.431,0.053 2.721,0.082 4.07,0.082 1.265,0 2.558,-0.029 3.992,-0.082 l 0,0.824 -1.323,0.082 c -0.663,0.029 -0.993,0.137 -1.153,0.412 -0.196,0.306 -0.251,1.018 -0.251,2.064 l 0,11.64 c 0,1.043 0.029,1.928 0.114,2.748 l 4.26,0 c 0.823,0 1.046,-0.245 1.101,-0.908 l 0.108,-2.173 0.855,0 c 0,1.487 0.06,3.003 0.19,4.43 -1.98,0 -3.959,-0.082 -5.94,-0.082 l -3.992,0 c -1.979,0 -3.959,0.082 -5.939,0.082 0.137,-1.427 0.193,-2.943 0.193,-4.43 l 0.85,0 0.11,2.173 c 0.056,0.663 0.274,0.908 1.105,0.908 l 4.263,0 c 0.082,-0.82 0.108,-1.705 0.108,-2.748" /><path
           id="path90"
           style="fill:#5b5b5e;fill-opacity:1;fill-rule:nonzero;stroke:none"
           d="m 339.321,46.767 3.496,8.193 3.463,-8.193 -6.959,0 z m 4.62,11.855 -0.882,0 c -0.742,-1.983 -1.679,-4.018 -2.529,-5.942 l -4.893,-11.144 c -0.304,-0.716 -0.833,-1.294 -1.491,-1.349 l -1.019,-0.082 0,-0.824 c 1.046,0.027 2.095,0.082 3.166,0.082 0.801,0 1.846,-0.055 3.166,-0.082 l 0,0.824 -1.02,0.082 c -0.852,0.084 -1.319,0.196 -1.319,0.771 0,0.44 0.712,2.283 0.96,2.861 l 0.772,1.843 7.921,0 1.272,-3.166 c 0.27,-0.659 0.574,-1.375 0.574,-1.761 0,-0.33 -0.552,-0.519 -1.13,-0.548 l -1.291,-0.082 0,-0.824 c 1.488,0.027 2.699,0.082 3.659,0.082 1.236,0 2.448,-0.055 3.657,-0.082 l 0,0.824 -0.935,0.082 c -0.493,0.055 -0.794,0.412 -1.098,0.934 -0.333,0.578 -0.633,1.323 -0.881,1.872 l -6.659,15.629" /><path
           id="path92"
           style="fill:#5b5b5e;fill-opacity:1;fill-rule:nonzero;stroke:none"
           d="m 359.658,55.019 c 0,1.042 0.056,1.761 0.249,2.061 0.16,0.278 0.496,0.386 1.154,0.415 l 1.319,0.079 0,0.826 c -1.428,-0.052 -2.722,-0.082 -3.989,-0.082 -1.346,0 -2.643,0.03 -4.068,0.082 l 0,-0.826 1.321,-0.079 c 0.656,-0.029 0.99,-0.137 1.153,-0.415 0.196,-0.3 0.248,-1.019 0.248,-2.061 l 0,-13.042 c 0,-0.745 -0.222,-1.378 -0.69,-1.623 l -0.849,-0.442 0,-0.631 c 0.716,0.027 1.402,0.082 2.336,0.082 1.709,0 3.522,-0.055 5.998,-0.082 2.036,-0.029 4.208,0.053 5.42,0.082 0.222,1.372 0.415,3.218 0.575,4.731 l -0.875,0 -0.33,-1.375 c -0.138,-0.575 -0.304,-1.513 -0.582,-1.761 -0.464,-0.438 -3.822,-0.523 -6.079,-0.523 -0.742,0 -1.539,0.026 -2.311,0.222" /><path
           id="path94"
           style="fill:#5b5b5e;fill-opacity:1;fill-rule:nonzero;stroke:none"
           d="m 108.645,83.98 c 0,1.043 0.054,1.758 0.245,2.059 0.167,0.277 0.498,0.359 1.156,0.415 l 1.159,0.081 0,0.827 c -0.801,-0.026 -1.68,-0.085 -2.56,-0.085 -0.884,0 -1.733,0.059 -2.615,0.085 L 98.823,72.063 91.561,87.362 c -0.853,-0.026 -1.734,-0.085 -2.613,-0.085 -0.884,0 -1.764,0.059 -2.616,0.085 l 0,-0.827 1.21,-0.081 c 0.66,-0.056 0.992,-0.138 1.155,-0.415 0.194,-0.301 0.251,-1.016 0.251,-2.059 l 0,-12.355 c 0,-1.045 -0.057,-1.761 -0.251,-2.065 -0.163,-0.274 -0.495,-0.356 -1.155,-0.412 l -1.21,-0.081 0,-0.827 c 1.101,0.03 2.202,0.082 3.191,0.082 1.102,0 2.091,-0.052 3.302,-0.082 l 0,0.827 -1.211,0.081 c -0.66,0.056 -0.989,0.138 -1.155,0.412 -0.194,0.304 -0.246,1.02 -0.246,2.065 l 0,12.489 0.052,0 7.622,-16.148 0.549,0 c 0.495,1.153 0.967,2.365 1.488,3.492 l 4.897,10.399 c 0.358,0.745 0.74,1.516 1.155,2.257 l 0.054,0 0,-12.489 c 0,-1.045 -0.054,-1.761 -0.245,-2.065 -0.167,-0.274 -0.495,-0.356 -1.157,-0.412 l -0.938,-0.081 0,-0.827 c 1.048,0.052 2.34,0.082 3.687,0.082 1.268,0 2.56,-0.03 3.991,-0.082 l 0,0.827 -1.322,0.081 c -0.658,0.027 -0.989,0.138 -1.156,0.412 -0.191,0.304 -0.245,1.02 -0.245,2.065" /><path
           id="path96"
           style="fill:#5b5b5e;fill-opacity:1;fill-rule:nonzero;stroke:none"
           d="m 117.561,75.725 3.495,8.197 3.466,-8.197 -6.961,0 z m 4.623,11.853 -0.879,0 c -0.747,-1.977 -1.683,-4.013 -2.534,-5.936 l -4.897,-11.144 c -0.304,-0.716 -0.823,-1.294 -1.485,-1.35 l -1.018,-0.081 0,-0.827 c 1.047,0.03 2.091,0.082 3.163,0.082 0.799,0 1.845,-0.052 3.164,-0.082 l 0,0.827 -1.018,0.081 c -0.852,0.082 -1.32,0.193 -1.32,0.771 0,0.441 0.716,2.281 0.962,2.859 l 0.77,1.846 7.926,0 1.264,-3.166 c 0.274,-0.66 0.578,-1.375 0.578,-1.761 0,-0.33 -0.55,-0.522 -1.127,-0.549 l -1.294,-0.081 0,-0.827 c 1.485,0.03 2.695,0.082 3.659,0.082 1.238,0 2.449,-0.052 3.661,-0.082 l 0,0.827 -0.938,0.081 c -0.495,0.056 -0.799,0.412 -1.099,0.935 -0.332,0.578 -0.634,1.32 -0.881,1.869 l -6.657,15.626" /><path
           id="path98"
           style="fill:#5b5b5e;fill-opacity:1;fill-rule:nonzero;stroke:none"
           d="m 144.294,82.792 c 0,1.293 0.11,2.479 0.388,3.88 -1.131,0.442 -2.781,1.157 -4.981,1.157 -3.303,0 -7.045,-1.954 -7.045,-6.217 0,-2.862 1.708,-4.208 6.024,-4.708 2.81,-0.326 4.845,-1.071 4.845,-3.688 0,-2.718 -2.45,-4.234 -4.925,-4.234 -2.174,0 -4.349,1.049 -4.486,2.202 l -0.222,1.842 -0.878,0 c 0.029,-1.29 0.029,-2.78 -0.192,-4.208 0.907,-0.441 2.781,-1.045 4.705,-1.045 4.097,0 8.309,2.258 8.309,6.959 0,3.136 -2.448,4.1 -6.33,4.515 -3.438,0.382 -4.539,1.539 -4.539,3.41 0,2.725 2.145,4.015 4.074,4.015 1.072,0 2.228,-0.192 2.998,-0.659 1.017,-0.631 1.127,-0.909 1.211,-1.654 l 0.164,-1.567" /><path
           id="path100"
           style="fill:#5b5b5e;fill-opacity:1;fill-rule:nonzero;stroke:none"
           d="m 159.943,82.792 c 0,1.293 0.108,2.479 0.386,3.88 -1.127,0.442 -2.781,1.157 -4.982,1.157 -3.302,0 -7.042,-1.954 -7.042,-6.217 0,-2.862 1.707,-4.208 6.026,-4.708 2.806,-0.326 4.843,-1.071 4.843,-3.688 0,-2.718 -2.452,-4.234 -4.928,-4.234 -2.171,0 -4.346,1.049 -4.483,2.202 l -0.22,1.842 -0.881,0 c 0.028,-1.29 0.028,-2.78 -0.192,-4.208 0.909,-0.441 2.778,-1.045 4.702,-1.045 4.099,0 8.313,2.258 8.313,6.959 0,3.136 -2.452,4.1 -6.333,4.515 -3.438,0.382 -4.536,1.539 -4.536,3.41 0,2.725 2.145,4.015 4.072,4.015 1.073,0 2.229,-0.192 2.998,-0.659 1.019,-0.631 1.13,-0.909 1.21,-1.654 l 0.168,-1.567" /><path
           id="path102"
           style="fill:#5b5b5e;fill-opacity:1;fill-rule:nonzero;stroke:none"
           d="m 167.795,75.725 3.493,8.197 3.466,-8.197 -6.959,0 z m 4.623,11.853 -0.882,0 c -0.743,-1.977 -1.676,-4.013 -2.53,-5.936 l -4.898,-11.144 c -0.303,-0.716 -0.826,-1.294 -1.484,-1.35 l -1.021,-0.081 0,-0.827 c 1.047,0.03 2.094,0.082 3.167,0.082 0.797,0 1.841,-0.052 3.163,-0.082 l 0,0.827 -1.021,0.081 c -0.85,0.082 -1.319,0.193 -1.319,0.771 0,0.441 0.713,2.281 0.961,2.859 l 0.773,1.846 7.922,0 1.268,-3.166 c 0.274,-0.66 0.575,-1.375 0.575,-1.761 0,-0.33 -0.55,-0.522 -1.128,-0.549 l -1.295,-0.081 0,-0.827 c 1.49,0.03 2.7,0.082 3.661,0.082 1.241,0 2.452,-0.052 3.66,-0.082 l 0,0.827 -0.934,0.081 c -0.495,0.056 -0.799,0.412 -1.101,0.935 -0.33,0.578 -0.632,1.32 -0.879,1.869 l -6.658,15.626" /><path
           id="path104"
           style="fill:#5b5b5e;fill-opacity:1;fill-rule:nonzero;stroke:none"
           d="m 199.789,70.632 -0.248,0.277 c -1.262,-0.937 -3.601,-1.653 -5.58,-1.653 -5.448,0 -9.055,3.522 -9.055,8.972 0,4.678 2.723,8.444 7.898,8.444 1.019,0 2.202,-0.163 3.078,-0.466 1.267,-0.468 2.372,-0.935 2.372,-1.709 l 0,-1.977 0.849,0 c 0,1.428 0.249,2.888 0.523,4.182 -1.32,0.467 -3.797,1.127 -6.352,1.127 -3.086,0 -5.892,-0.934 -7.953,-2.643 -2.12,-1.731 -3.359,-4.237 -3.359,-7.4 0,-6.246 4.46,-10.013 11.061,-10.013 1.679,0 4.401,0.519 5.998,1.483" /><path
           id="path106"
           style="fill:#5b5b5e;fill-opacity:1;fill-rule:nonzero;stroke:none"
           d="m 220.842,83.98 c 0,1.043 0.054,1.758 0.244,2.059 0.167,0.277 0.5,0.385 1.16,0.415 l 1.32,0.081 0,0.827 c -1.431,-0.056 -2.724,-0.085 -3.992,-0.085 -1.346,0 -2.64,0.029 -4.071,0.085 l 0,-0.827 1.32,-0.081 c 0.659,-0.03 0.993,-0.138 1.156,-0.415 0.197,-0.301 0.249,-1.016 0.249,-2.059 l 0,-4.903 c -0.327,-0.026 -1.072,-0.053 -2.281,-0.053 l -6.442,0 c -1.209,0 -1.954,0.027 -2.283,0.053 l 0,4.903 c 0,1.043 0.054,1.758 0.251,2.059 0.163,0.277 0.493,0.385 1.153,0.415 l 1.323,0.081 0,0.827 c -1.434,-0.056 -2.727,-0.085 -3.992,-0.085 -1.346,0 -2.64,0.029 -4.07,0.085 l 0,-0.827 1.319,-0.081 c 0.66,-0.03 0.99,-0.138 1.153,-0.415 0.193,-0.301 0.252,-1.016 0.252,-2.059 l 0,-12.355 c 0,-1.045 -0.059,-1.761 -0.252,-2.065 -0.163,-0.274 -0.493,-0.385 -1.153,-0.412 l -1.319,-0.081 0,-0.827 c 1.43,0.052 2.724,0.082 4.07,0.082 1.265,0 2.558,-0.03 3.992,-0.082 l 0,0.827 -1.323,0.081 c -0.66,0.027 -0.99,0.138 -1.153,0.412 -0.197,0.304 -0.251,1.02 -0.251,2.065 l 0,6.132 c 0.329,0.029 1.074,0.056 2.283,0.056 l 6.442,0 c 1.209,0 1.954,-0.027 2.281,-0.056 l 0,-6.132 c 0,-1.045 -0.052,-1.761 -0.249,-2.065 -0.163,-0.274 -0.497,-0.385 -1.156,-0.412 l -1.32,-0.081 0,-0.827 c 1.431,0.052 2.725,0.082 4.071,0.082 1.268,0 2.561,-0.03 3.992,-0.082 l 0,0.827 -1.32,0.081 c -0.66,0.027 -0.993,0.138 -1.16,0.412 -0.19,0.304 -0.244,1.02 -0.244,2.065" /><path
           id="path108"
           style="fill:#5b5b5e;fill-opacity:1;fill-rule:nonzero;stroke:none"
           d="m 228.225,74.212 c 0,-5.037 2.751,-6.439 7.429,-6.439 5.554,0 7.782,2.365 7.782,8.256 l 0,7.951 c 0,1.043 0.058,1.758 0.248,2.059 0.17,0.277 0.497,0.359 1.157,0.415 l 1.209,0.081 0,0.827 c -1.209,-0.026 -2.196,-0.085 -3.3,-0.085 -0.987,0 -2.091,0.059 -3.188,0.085 l 0,-0.827 1.208,-0.081 c 0.66,-0.056 0.993,-0.138 1.157,-0.415 0.192,-0.301 0.248,-1.016 0.248,-2.059 l 0,-8.804 c 0,-4.567 -2.698,-5.697 -5.672,-5.697 -3.629,0 -5.668,1.13 -5.668,5.037 l 0,9.464 c 0,1.043 0.056,1.758 0.248,2.059 0.167,0.277 0.493,0.385 1.157,0.415 l 1.323,0.081 0,0.827 c -1.431,-0.056 -2.728,-0.085 -3.993,-0.085 -1.345,0 -2.639,0.029 -4.07,0.085 l 0,-0.827 1.32,-0.081 c 0.659,-0.03 0.993,-0.138 1.157,-0.415 0.192,-0.301 0.248,-1.016 0.248,-2.059" /><path
           id="path110"
           style="fill:#5b5b5e;fill-opacity:1;fill-rule:nonzero;stroke:none"
           d="m 259.499,82.792 c 0,1.293 0.115,2.479 0.383,3.88 -1.124,0.442 -2.778,1.157 -4.976,1.157 -3.302,0 -7.04,-1.954 -7.04,-6.217 0,-2.862 1.705,-4.208 6.024,-4.708 2.803,-0.326 4.841,-1.071 4.841,-3.688 0,-2.718 -2.45,-4.234 -4.926,-4.234 -2.176,0 -4.348,1.049 -4.486,2.202 l -0.221,1.842 -0.876,0 c 0.026,-1.29 0.026,-2.78 -0.193,-4.208 0.909,-0.441 2.777,-1.045 4.704,-1.045 4.097,0 8.308,2.258 8.308,6.959 0,3.136 -2.446,4.1 -6.328,4.515 -3.44,0.382 -4.541,1.539 -4.541,3.41 0,2.725 2.15,4.015 4.074,4.015 1.071,0 2.229,-0.192 2.996,-0.659 1.02,-0.631 1.13,-0.909 1.215,-1.654 l 0.164,-1.567" /><path
           id="path112"
           style="fill:#5b5b5e;fill-opacity:1;fill-rule:nonzero;stroke:none"
           d="m 265.824,71.625 c 0,-1.045 -0.052,-1.761 -0.245,-2.065 -0.17,-0.274 -0.496,-0.356 -1.156,-0.412 l -0.993,-0.081 0,-0.827 c 0.993,0.03 1.901,0.082 2.943,0.082 1.709,0 3.881,-0.052 5.998,-0.082 2.039,-0.026 4.212,0.052 5.424,0.082 0,1.487 0.16,3.192 0.437,4.511 l -0.963,0 c -0.19,-1.649 -0.549,-2.861 -0.96,-3.077 -0.497,-0.277 -3.307,-0.359 -5.561,-0.359 -0.742,0 -1.536,0.026 -2.31,0.219 l 0,7.703 c 0.853,0.085 1.872,0.085 3.192,0.085 1.679,0 2.613,-0.111 2.917,-0.333 0.138,-0.085 0.193,-0.327 0.219,-0.686 l 0.137,-1.624 0.824,0 c -0.023,0.99 -0.079,2.035 -0.079,3.052 0,1.019 0.056,2.064 0.079,3.191 l -0.824,0 -0.137,-1.431 c -0.026,-0.352 -0.081,-0.601 -0.219,-0.712 -0.304,-0.193 -1.238,-0.3 -2.917,-0.3 -1.32,0 -2.314,0.022 -3.192,0.078 l 0,7.347 c 0.774,0.19 1.568,0.22 2.31,0.22 1.761,0 3.937,-0.03 5.394,-0.582 0.218,-0.079 0.248,-0.379 0.248,-0.738 l 0,-1.787 0.961,0 c 0,1.398 0.14,2.969 0.444,4.178 -1.075,0.059 -2.316,0.085 -3.552,0.085 -1.568,0 -4.099,-0.085 -6.491,-0.085 -1.568,0 -3.14,0.059 -4.649,0.085 l 0,-0.827 1.32,-0.081 c 0.66,-0.03 0.986,-0.138 1.156,-0.415 0.193,-0.301 0.245,-1.016 0.245,-2.059" /><path
           id="path114"
           style="fill:#5b5b5e;fill-opacity:1;fill-rule:nonzero;stroke:none"
           d="m 286.821,71.625 c 0,-1.045 -0.058,-1.761 -0.248,-2.065 -0.167,-0.274 -0.497,-0.385 -1.157,-0.412 l -1.319,-0.081 0,-0.827 c 1.43,0.052 2.724,0.082 4.07,0.082 1.268,0 2.562,-0.03 3.992,-0.082 l 0,0.827 -1.319,0.081 c -0.66,0.027 -0.993,0.138 -1.156,0.412 -0.194,0.304 -0.249,1.02 -0.249,2.065 l 0,11.634 c 0,1.048 0.026,1.927 0.111,2.754 l 4.264,0 c 0.823,0 1.048,-0.245 1.097,-0.909 l 0.114,-2.175 0.85,0 c 0,1.489 0.056,3.002 0.195,4.433 -1.982,0 -3.959,-0.085 -5.945,-0.085 l -3.989,0 c -1.977,0 -3.963,0.085 -5.943,0.085 0.137,-1.431 0.19,-2.944 0.19,-4.433 l 0.859,0 0.108,2.175 c 0.055,0.664 0.274,0.909 1.104,0.909 l 4.26,0 c 0.085,-0.827 0.111,-1.706 0.111,-2.754" /><path
           id="path116"
           style="fill:#5b5b5e;fill-opacity:1;fill-rule:nonzero;stroke:none"
           d="m 304.352,71.625 c 0,-1.045 -0.056,-1.761 -0.248,-2.065 -0.164,-0.274 -0.497,-0.385 -1.157,-0.412 l -1.32,-0.081 0,-0.827 c 1.432,0.052 2.725,0.082 4.071,0.082 1.268,0 2.561,-0.03 3.992,-0.082 l 0,0.827 -1.32,0.081 c -0.66,0.027 -0.993,0.138 -1.156,0.412 -0.193,0.304 -0.248,1.02 -0.248,2.065 l 0,11.634 c 0,1.048 0.025,1.927 0.11,2.754 l 4.267,0 c 0.817,0 1.043,-0.245 1.098,-0.909 l 0.111,-2.175 0.849,0 c 0,1.489 0.059,3.002 0.197,4.433 -1.987,0 -3.967,-0.085 -5.947,-0.085 l -3.985,0 c -1.986,0 -3.967,0.085 -5.946,0.085 0.14,-1.431 0.196,-2.944 0.196,-4.433 l 0.85,0 0.11,2.175 c 0.053,0.664 0.274,0.909 1.102,0.909 l 4.263,0 c 0.085,-0.827 0.111,-1.706 0.111,-2.754" /><path
           id="path118"
           style="fill:#5b5b5e;fill-opacity:1;fill-rule:nonzero;stroke:none"
           d="m 327.058,82.792 c 0,1.293 0.104,2.479 0.379,3.88 -1.124,0.442 -2.778,1.157 -4.98,1.157 -3.296,0 -7.04,-1.954 -7.04,-6.217 0,-2.862 1.705,-4.208 6.024,-4.708 2.807,-0.326 4.842,-1.071 4.842,-3.688 0,-2.718 -2.447,-4.234 -4.924,-4.234 -2.175,0 -4.344,1.049 -4.481,2.202 l -0.226,1.842 -0.879,0 c 0.03,-1.29 0.03,-2.78 -0.189,-4.208 0.908,-0.441 2.776,-1.045 4.704,-1.045 4.097,0 8.305,2.258 8.305,6.959 0,3.136 -2.447,4.1 -6.325,4.515 -3.437,0.382 -4.541,1.539 -4.541,3.41 0,2.725 2.146,4.015 4.074,4.015 1.075,0 2.228,-0.192 2.996,-0.659 1.019,-0.631 1.124,-0.909 1.212,-1.654 l 0.167,-1.567" /></g></g></g></svg>